<?xml version="1.0" encoding="utf-8"?>
<!-- Generator: Adobe Illustrator 21.0.0, SVG Export Plug-In . SVG Version: 6.00 Build 0)  -->
<svg version="1.1" id="Layer_1" xmlns="http://www.w3.org/2000/svg" xmlns:xlink="http://www.w3.org/1999/xlink" x="0px" y="0px"
	 viewBox="0 0 301.3 308.7" style="enable-background:new 0 0 301.3 308.7;" xml:space="preserve">
<style type="text/css">
	.st0{fill:#2A4F95;}
	.st1{fill:#B3DC1F;}
	.st2{fill:#FE330A;}
	.st3{fill:#FF8000;}
	.st4{fill:#999999;}
	.st5{fill:#01A0C6;}
	.st6{fill:#FFFFFF;}
	.st7{fill-rule:evenodd;clip-rule:evenodd;fill:#FFFFFF;}
</style>
<g>
	<g id="XMLID_1853_">
		<g id="XMLID_1864_">
			<polygon id="XMLID_1872_" class="st0" points="28.5,23.5 60.7,23.5 60.7,7.4 8.1,7.4 8.1,137.9 28.5,137.9 28.5,76.2 60.6,76.2 
				60.6,60.1 28.5,60.1 			"/>
			<path id="XMLID_1870_" class="st0" d="M79.5,42.9h20.4v95H79.5V42.9z"/>
			<path id="XMLID_1868_" class="st0" d="M118.7,7.4h25l32.7,86.1l2.6,10.6h0.6l-0.4-11.5V7.4h17.4v130.5H173l-34-88.8l-2.8-11.3
				h-0.6l0.4,11.9v88.3h-17.4V7.4z"/>
			<g id="XMLID_1865_">
				<path id="XMLID_1866_" class="st0" d="M216.6,7.4h20.4v130.5h-20.4V7.4z"/>
			</g>
		</g>
		<g id="XMLID_1854_">
			<circle id="XMLID_1863_" class="st1" cx="89.7" cy="23.6" r="8.4"/>
			<g id="XMLID_1861_">
				<path id="XMLID_1862_" class="st2" d="M89.7,8.7c8.1,0,14.8,6.5,14.9,14.6h1.2c-0.1-4.2-1.8-8.1-4.7-11.1
					C98,9.1,94,7.4,89.7,7.4c-4.3,0-8.4,1.7-11.4,4.7c-3,3-4.6,6.9-4.7,11.1h1.2C74.9,15.2,81.5,8.7,89.7,8.7z"/>
			</g>
			<g id="XMLID_1859_">
				<path id="XMLID_1860_" class="st3" d="M76.8,24c0-7.1,5.6-12.9,12.6-13.3c0-0.3,0-0.5,0-0.8c0-0.1,0-0.2,0-0.3
					c-3.6,0.2-6.9,1.6-9.5,4.2c-2.7,2.7-4.2,6.3-4.2,10.1s1.5,7.4,4.2,10.1c2.6,2.6,5.9,4,9.5,4.2c0-0.4,0-0.7,0-1.1
					C82.4,36.9,76.8,31.1,76.8,24z"/>
			</g>
			<g id="XMLID_1857_">
				<path id="XMLID_1858_" class="st4" d="M100,17.7c1.4,2.3,2,5.1,1.5,8c-1.1,6.3-7.2,10.5-13.4,9.4c-2.9-0.5-5.3-2-7-4.2
					c-0.3,0.2-0.5,0.4-0.8,0.5c1.9,2.4,4.6,4,7.6,4.5c3.3,0.6,6.6-0.1,9.4-2.1c2.7-1.9,4.6-4.8,5.2-8.1c0.5-3,0-6.1-1.6-8.7
					C100.5,17.3,100.3,17.5,100,17.7z"/>
			</g>
			<g id="XMLID_1855_">
				<path id="XMLID_1856_" class="st5" d="M99.5,23.6c0,3-1.3,5.6-3.4,7.4c0.1,0.1,0.2,0.2,0.3,0.3c0.1,0.1,0.3,0.2,0.4,0.3
					c2.2-2,3.6-4.8,3.6-8c0-5.9-4.8-10.7-10.7-10.7c-5,0-9.1,3.4-10.3,8l0.1,0h0.8c1.1-4.1,4.9-7.2,9.4-7.2
					C95.1,13.8,99.5,18.2,99.5,23.6z"/>
			</g>
		</g>
	</g>
	<g id="XMLID_1831_">
		<g>
			<path id="XMLID_80_" class="st1" d="M268.1,107.4c-3.6-4.5-5.9-5.9-9.5-5.9c-4.6,0-7.1,2.5-7.1,6.2c0,3.1,2.9,6.1,7.3,6.4
				l-3.8,4.6c-5.7-1.3-9.1-5.2-9-11.5c-0.1-8.6,5.2-12.8,12.2-12.8c7.1,0,11.1,3.4,15.3,8.6c4.1,5,8.2,7.2,12.9,7.2V96.4l5.9-1.3
				v22.9C280.4,117.9,273.3,114.1,268.1,107.4z"/>
			<path id="XMLID_77_" class="st1" d="M292.9,78.1c0.1,8.8-9.4,12.9-23.4,12.9c-13.9,0-23.6-4.2-23.5-12.9
				c-0.1-8.8,9.6-12.9,23.4-12.9C283.5,65.2,292.9,69.4,292.9,78.1L292.9,78.1z M269.3,72.4c-11.1,0-17.9,1.5-17.9,5.8
				c0,4.2,6.8,5.8,17.8,5.8c11.3,0,18-1.6,18-5.8C287.2,73.9,280.6,72.4,269.3,72.4z"/>
			<path id="XMLID_75_" class="st3" d="M268.1,49.6c-3.6-4.5-5.9-5.9-9.5-5.9c-4.6,0-7.1,2.5-7.1,6.2c0,3.1,2.9,6.1,7.3,6.4
				l-3.8,4.6c-5.7-1.3-9.1-5.2-9-11.5c-0.1-8.6,5.2-12.8,12.2-12.8c7.1,0,11.1,3.4,15.3,8.6c4.1,5,8.2,7.2,12.9,7.2V38.6l5.9-1.3
				v22.9C280.4,60.2,273.3,56.3,268.1,49.6z"/>
			<path id="XMLID_72_" class="st3" d="M292.9,20.4c0.1,8.8-9.4,12.9-23.4,12.9c-13.9,0-23.6-4.2-23.5-12.9
				c-0.1-8.8,9.6-12.9,23.4-12.9C283.5,7.4,292.9,11.6,292.9,20.4L292.9,20.4z M269.3,14.6c-11.1,0-17.9,1.5-17.9,5.8
				c0,4.2,6.8,5.8,17.8,5.8c11.3,0,18-1.6,18-5.8C287.2,16.1,280.6,14.6,269.3,14.6z"/>
		</g>
	</g>
	<g id="XMLID_1803_">
		<g>
			<path id="XMLID_104_" class="st1" d="M249.1,130.7l-3-6.1h2.2l1.8,3.9l0.2,0.5h0l0.2-0.5l1.8-3.9h1.9l-3,5.9l3.2,6.5h-2.2
				l-1.9-4.3l-0.2-0.5h0l-0.2,0.5l-2,4.3h-2L249.1,130.7z"/>
			<path id="XMLID_101_" class="st3" d="M259.7,136.9h-1.9l3-12.3h2.4l3.1,12.3h-2.2l-0.8-3.5h-2.9L259.7,136.9z M262.2,127.3
				l-0.1-0.9H262l-0.1,0.9l-1,4.7h2.4L262.2,127.3z"/>
			<path id="XMLID_98_" class="st3" d="M267.2,124.6h2.4l3.1,8.1l0.2,1h0.1l0-1.1v-8.1h1.7v12.3h-2.2l-3.2-8.4l-0.3-1.1h-0.1l0,1.1
				v8.3h-1.7V124.6z M270.2,121.7c0.8,0,1,0.7,1.7,0.7c0.3,0,0.6-0.2,0.8-0.6l0.5,0.8c-0.4,0.7-0.8,0.9-1.4,0.9
				c-0.9,0-1-0.7-1.7-0.7c-0.4,0-0.7,0.2-0.9,0.7l-0.4-0.8C269.2,121.9,269.7,121.7,270.2,121.7z"/>
			<path id="XMLID_95_" class="st3" d="M280.2,137.1c-2.8,0-4.2-2.7-4.2-6.4c0-3.7,1.4-6.4,4.2-6.4c2.8,0,4.2,2.7,4.2,6.4
				C284.5,134.4,283.1,137.1,280.2,137.1L280.2,137.1z M282.4,130.7c0-2.9-0.6-4.8-2.2-4.8c-1.6,0-2.2,1.9-2.2,4.8
				c0,2.9,0.6,4.8,2.2,4.8C281.8,135.6,282.4,133.6,282.4,130.7z"/>
			<path id="XMLID_93_" class="st3" d="M288.7,137.1c-1.9,0-3-0.9-3.4-2.5l1.2-1c0.2,1.3,1,2,2.3,2c1.1,0,1.9-0.6,1.9-1.7
				c0-1.1-0.5-1.7-2.4-2.4c-2.1-0.7-2.8-2-2.8-3.6c0-2.1,1.4-3.5,3.6-3.5c1.9,0,2.8,0.9,3.1,2.5l-1.2,1c-0.1-1.2-0.8-2-2-2
				c-1,0-1.7,0.6-1.7,1.7c0,0.9,0.4,1.4,1.8,1.8c2.5,0.8,3.5,1.9,3.5,4.1C292.6,135.8,291,137.1,288.7,137.1L288.7,137.1z"/>
		</g>
	</g>
	<g id="XMLID_1552_">
		<g id="XMLID_1556_">
			<g id="XMLID_1686_">
				<g id="XMLID_1800_">
					<path id="XMLID_1801_" class="st6" d="M7.7,146.9h6.1l-0.3,2.2H9.7v4.8h3.3v2.2H9.7v8.3H7.7V146.9z"/>
				</g>
				<g id="XMLID_1797_">
					<path id="XMLID_1798_" class="st6" d="M15.5,146.9h6.1l-0.3,2.2h-3.9v4.8h3.3v2.2h-3.3v6.1h3.9l0.3,2.2h-6.2V146.9z"/>
				</g>
				<g id="XMLID_1794_">
					<path id="XMLID_1795_" class="st6" d="M26.8,164.7c-2,0-3.2-1.3-3.5-3.6l1.3-1.5c0.2,1.8,1.1,2.9,2.4,2.9c1.2,0,2-0.9,2-2.4
						c0-1.6-0.5-2.4-2.6-3.4c-2.2-1-3-2.8-3-5.1c0-3,1.4-5,3.8-5c2,0,2.9,1.3,3.3,3.5l-1.3,1.5c-0.1-1.7-0.8-2.8-2.2-2.8
						c-1.1,0-1.8,0.8-1.8,2.4c0,1.2,0.4,1.9,1.9,2.6c2.6,1.1,3.7,2.7,3.7,5.8C30.8,162.8,29.2,164.7,26.8,164.7L26.8,164.7z"/>
				</g>
				<g id="XMLID_1791_">
					<path id="XMLID_1792_" class="st6" d="M34.4,149.1h-2.6l-0.3-2.2h7.8l-0.3,2.2h-2.6v15.3h-1.9V149.1z"/>
				</g>
				<g id="XMLID_1788_">
					<path id="XMLID_1789_" class="st6" d="M41,146.9h1.9v17.5H41V146.9z"/>
				</g>
				<g id="XMLID_1785_">
					<path id="XMLID_1786_" class="st6" d="M44.5,146.9h2.1l2.3,13.2l0.2,1.3h0l0.1-1.3l2.3-13.2h1.8l-3.3,17.5h-2.3L44.5,146.9z"/>
				</g>
				<g id="XMLID_1781_">
					<path id="XMLID_1782_" class="st6" d="M55.3,164.4h-1.8l3.3-17.5h2.3l3.4,17.5h-2.2l-0.9-4.9h-3.3L55.3,164.4z M58,150.9
						l-0.2-1.3h0l-0.2,1.3l-1.1,6.6h2.6L58,150.9z"/>
				</g>
				<g id="XMLID_1778_">
					<path id="XMLID_1779_" class="st6" d="M64.1,146.9H66v15.3h3.9l0.3,2.2h-6.1V146.9z"/>
				</g>
				<g id="XMLID_1775_">
					<path id="XMLID_1776_" class="st6" d="M76.2,146.9h1.9v17.5h-1.9V146.9z"/>
				</g>
				<g id="XMLID_1772_">
					<path id="XMLID_1773_" class="st6" d="M81,146.9h2.3l3.4,11.5l0.3,1.4H87l0-1.6v-11.3h1.7v17.5h-2.1l-3.6-11.9l-0.3-1.5h0
						l0,1.7v11.8H81V146.9z"/>
				</g>
				<g id="XMLID_1769_">
					<path id="XMLID_1770_" class="st6" d="M93.3,149.1h-2.6l-0.3-2.2h7.8l-0.3,2.2h-2.6v15.3h-1.9V149.1z"/>
				</g>
				<g id="XMLID_1766_">
					<path id="XMLID_1767_" class="st6" d="M99.8,146.9h6.1l-0.3,2.2h-3.9v4.8h3.3v2.2h-3.3v6.1h3.9l0.3,2.2h-6.2V146.9z"/>
				</g>
				<g id="XMLID_1762_">
					<path id="XMLID_1763_" class="st6" d="M108.1,146.9h3.4c2.7,0,3.8,2.1,3.8,4.8c0,2.3-0.9,3.9-2.2,4.3v0.1
						c1.7,0.6,2.1,7.8,2.8,8.2v0.1h-2.4c-0.4-3.7-1-7.4-2.3-7.4H110v7.4h-1.9V146.9z M111.4,154.8c1.2,0,1.9-1.1,1.9-2.9
						c0-1.9-0.7-2.8-1.9-2.8H110v5.8H111.4z"/>
				</g>
				<g id="XMLID_1759_">
					<path id="XMLID_1760_" class="st6" d="M117.8,146.9h2.3l3.4,11.5l0.3,1.4h0.1l0-1.6v-11.3h1.7v17.5h-2.1l-3.6-11.9l-0.3-1.5h0
						l0,1.7v11.8h-1.7V146.9z"/>
				</g>
				<g id="XMLID_1755_">
					<path id="XMLID_1756_" class="st6" d="M128.9,164.4h-1.8l3.3-17.5h2.3l3.4,17.5h-2.2l-0.9-4.9h-3.3L128.9,164.4z M131.6,150.9
						l-0.2-1.3h0l-0.2,1.3l-1.1,6.6h2.6L131.6,150.9z"/>
				</g>
				<g id="XMLID_1752_">
					<path id="XMLID_1753_" class="st6" d="M141.7,164.7c-3,0-4.5-3.8-4.5-9c0-5.3,1.5-9.1,4.5-9.1c1.9,0,2.9,1.3,3.2,3.5l-1.3,1.5
						c-0.1-1.7-0.9-2.7-2-2.7c-1.8,0-2.5,2.6-2.5,6.7c0,4.1,0.7,6.8,2.5,6.8c1.1,0,1.8-1,2-2.7l1.3,1.5
						C144.6,163.4,143.6,164.7,141.7,164.7L141.7,164.7z"/>
				</g>
				<g id="XMLID_1749_">
					<path id="XMLID_1750_" class="st6" d="M146.8,146.9h1.9v17.5h-1.9V146.9z"/>
				</g>
				<g id="XMLID_1745_">
					<path id="XMLID_1746_" class="st6" d="M155.6,164.7c-3,0-4.5-3.8-4.5-9c0-5.3,1.5-9.1,4.5-9.1c3,0,4.5,3.8,4.5,9
						C160,160.9,158.6,164.7,155.6,164.7L155.6,164.7z M158,155.6c0-4.1-0.7-6.8-2.4-6.8c-1.8,0-2.4,2.7-2.4,6.8
						c0,4.1,0.7,6.8,2.4,6.8C157.3,162.4,158,159.7,158,155.6z"/>
				</g>
				<g id="XMLID_1742_">
					<path id="XMLID_1743_" class="st6" d="M162.4,146.9h2.3l3.4,11.5l0.3,1.4h0.1l0-1.6v-11.3h1.7v17.5h-2.1l-3.6-11.9l-0.3-1.5h0
						l0,1.7v11.8h-1.7V146.9z"/>
				</g>
				<g id="XMLID_1738_">
					<path id="XMLID_1739_" class="st6" d="M173.5,164.4h-1.8l3.3-17.5h2.3l3.4,17.5h-2.2l-0.9-4.9h-3.3L173.5,164.4z M176.2,150.9
						l-0.2-1.3h0l-0.2,1.3l-1.1,6.6h2.6L176.2,150.9z"/>
				</g>
				<g id="XMLID_1735_">
					<path id="XMLID_1736_" class="st6" d="M182.3,146.9h1.9v15.3h3.9l0.3,2.2h-6.1V146.9z"/>
				</g>
				<g id="XMLID_1731_">
					<path id="XMLID_1732_" class="st6" d="M194.4,146.9h3.5c3,0,4.5,3.7,4.5,8.8c0,5-1.5,8.8-4.5,8.8h-3.5V146.9z M197.7,162.2
						c2,0,2.7-2.8,2.7-6.6c0-3.8-0.7-6.6-2.8-6.6h-1.3v13.2H197.7z"/>
				</g>
				<g id="XMLID_1728_">
					<path id="XMLID_1729_" class="st6" d="M204.8,146.9h6.1l-0.3,2.2h-3.9v4.8h3.3v2.2h-3.3v6.1h3.9l0.3,2.2h-6.2V146.9z"/>
				</g>
				<g id="XMLID_1724_">
					<path id="XMLID_1726_" class="st6" d="M217.7,146.9h1.9v15.3h3.9l0.3,2.2h-6.1V146.9z"/>
				</g>
				<g id="XMLID_1720_">
					<path id="XMLID_1721_" class="st6" d="M225.8,164.4h-1.8l3.3-17.5h2.3l3.4,17.5h-2.2l-0.9-4.9h-3.3L225.8,164.4z M228.5,150.9
						l-0.2-1.3h0l-0.2,1.3l-1.1,6.6h2.6L228.5,150.9z"/>
				</g>
				<g id="XMLID_1717_">
					<path id="XMLID_1718_" class="st6" d="M239.2,146.9h1.9v17.5h-1.9V146.9z"/>
				</g>
				<g id="XMLID_1714_">
					<path id="XMLID_1715_" class="st6" d="M244,146.9h2.5l2.3,9.8l0.2,1.3h0l0.2-1.3l2.1-9.8h2.4v17.5h-1.9v-11.9l0-1.6h0l-0.2,1.5
						l-2.4,10.9h-1l-2.5-10.9l-0.2-1.5h0l0,1.6v11.9H244V146.9z"/>
				</g>
				<g id="XMLID_1697_">
					<path id="XMLID_1698_" class="st6" d="M257.3,164.4h-1.8l3.3-17.5h2.3l3.4,17.5h-2.2l-0.9-4.9h-3.3L257.3,164.4z M259.9,150.9
						l-0.2-1.3h0l-0.2,1.3l-1.1,6.6h2.6L259.9,150.9z"/>
				</g>
				<g id="XMLID_1694_">
					<path id="XMLID_1695_" class="st6" d="M270,164.7c-3,0-4.5-3.8-4.5-9c0-5.3,1.5-9.1,4.5-9.1c1.9,0,2.9,1.3,3.2,3.5l-1.3,1.5
						c-0.1-1.7-0.9-2.7-2-2.7c-1.8,0-2.5,2.6-2.5,6.7c0,4.1,0.7,6.8,2.5,6.8c1.1,0,1.6-1,1.6-2.6V157h-2.3v-2.1h4.1v9.3l-0.3,0
						c-0.1-0.8-0.3-1.3-0.6-1.7C272.1,163.7,271.2,164.7,270,164.7L270,164.7z"/>
				</g>
				<g id="XMLID_1691_">
					<path id="XMLID_1692_" class="st6" d="M276.1,146.9h6.1l-0.3,2.2h-3.9v4.8h3.3v2.2h-3.3v6.1h3.9l0.3,2.2h-6.2V146.9z"/>
				</g>
				<g id="XMLID_1688_">
					<path id="XMLID_1689_" class="st6" d="M284.4,146.9h2.3l3.4,11.5l0.3,1.4h0.1l0-1.6v-11.3h1.7v17.5h-2.1l-3.6-11.9l-0.3-1.5h0
						l0,1.7v11.8h-1.7V146.9z"/>
				</g>
			</g>
			<g id="XMLID_1557_">
				<path id="XMLID_1684_" class="st6" d="M12.9,178.7H9v3.5h4.3v1H7.7v-9.6h5.4v1H9v3h3.9V178.7z"/>
				<path id="XMLID_1682_" class="st6" d="M15,173.6h1.3v8.6h4.2v1H15V173.6z"/>
				<path id="XMLID_1680_" class="st6" d="M30.2,178.7h-3.9v3.5h4.3v1h-5.6v-9.6h5.4v1h-4.1v3h3.9V178.7z"/>
				<path id="XMLID_1678_" class="st6" d="M32.3,183.2v-9.6h1.4l3.2,4.9c0.7,1.1,1.3,2.1,1.8,3.1l0,0c-0.1-1.3-0.1-2.5-0.1-3.9v-4
					h1.2v9.6h-1.3l-3.2-4.9c-0.7-1.1-1.4-2.2-1.9-3.2l0,0c0.1,1.2,0.1,2.4,0.1,4v4.1H32.3z"/>
				<path id="XMLID_1666_" class="st6" d="M48.9,182.9c-0.5,0.2-1.4,0.5-2.6,0.5c-2.8,0-4.9-1.7-4.9-4.9c0-3,2.1-5,5.2-5
					c1.2,0,2,0.3,2.4,0.4l-0.3,1c-0.5-0.2-1.2-0.4-2-0.4c-2.3,0-3.9,1.4-3.9,4c0,2.4,1.4,3.9,3.8,3.9c0.8,0,1.6-0.2,2.1-0.4
					L48.9,182.9z"/>
				<path id="XMLID_1664_" class="st6" d="M51.8,173.6v5.7c0,2.2,1,3.1,2.3,3.1c1.5,0,2.4-0.9,2.4-3.1v-5.7h1.3v5.6
					c0,3-1.6,4.2-3.8,4.2c-2,0-3.6-1.1-3.6-4.1v-5.7H51.8z"/>
				<path id="XMLID_1662_" class="st6" d="M65.2,178.7h-3.9v3.5h4.3v1h-5.6v-9.6h5.4v1h-4.1v3h3.9V178.7z"/>
				<path id="XMLID_1660_" class="st6" d="M67.3,183.2v-9.6h1.4l3.2,4.9c0.7,1.1,1.3,2.1,1.8,3.1l0,0c-0.1-1.3-0.1-2.5-0.1-3.9v-4
					h1.2v9.6h-1.3l-3.2-4.9c-0.7-1.1-1.4-2.2-1.9-3.2l0,0c0.1,1.2,0.1,2.4,0.1,4v4.1H67.3z"/>
				<path id="XMLID_1658_" class="st6" d="M78.9,174.6h-3v-1.1h7.4v1.1h-3v8.6h-1.3V174.6z"/>
				<path id="XMLID_1655_" class="st6" d="M84.3,173.7c0.6-0.1,1.6-0.2,2.5-0.2c1.4,0,2.3,0.2,2.9,0.8c0.5,0.4,0.8,1.1,0.8,1.8
					c0,1.3-0.8,2.1-1.9,2.5v0c0.8,0.3,1.2,0.9,1.5,1.9c0.3,1.3,0.6,2.3,0.8,2.6h-1.3c-0.2-0.3-0.4-1.1-0.7-2.3
					c-0.3-1.3-0.8-1.8-2-1.9h-1.2v4.2h-1.3V173.7z M85.6,178.1h1.3c1.4,0,2.2-0.7,2.2-1.8c0-1.2-0.9-1.8-2.3-1.8
					c-0.6,0-1.1,0.1-1.3,0.1V178.1z"/>
				<path id="XMLID_1652_" class="st6" d="M100.8,178.3c0,3.3-2.1,5.1-4.6,5.1c-2.6,0-4.5-2-4.5-4.9c0-3.1,2-5,4.6-5
					C99,173.4,100.8,175.4,100.8,178.3z M93.1,178.4c0,2.1,1.1,3.9,3.2,3.9c2,0,3.2-1.8,3.2-4c0-1.9-1-3.9-3.2-3.9
					C94.2,174.4,93.1,176.3,93.1,178.4z"/>
				<path id="XMLID_1649_" class="st6" d="M105.6,173.7c0.8-0.1,1.7-0.2,2.7-0.2c1.8,0,3.2,0.4,4,1.2c0.9,0.8,1.4,1.9,1.4,3.5
					c0,1.6-0.5,2.9-1.4,3.7c-0.9,0.9-2.5,1.4-4.4,1.4c-0.9,0-1.7,0-2.3-0.1V173.7z M106.9,182.2c0.3,0.1,0.8,0.1,1.3,0.1
					c2.7,0,4.2-1.5,4.2-4.1c0-2.3-1.3-3.7-4-3.7c-0.7,0-1.2,0.1-1.5,0.1V182.2z"/>
				<path id="XMLID_1647_" class="st6" d="M120.5,178.7h-3.9v3.5h4.3v1h-5.6v-9.6h5.4v1h-4.1v3h3.9V178.7z"/>
				<path id="XMLID_1645_" class="st6" d="M125.8,173.6h1.3v8.6h4.2v1h-5.5V173.6z"/>
				<path id="XMLID_1642_" class="st6" d="M134.3,180.2l-1,3H132l3.4-9.6h1.5l3.4,9.6h-1.4l-1.1-3H134.3z M137.6,179.2l-1-2.8
					c-0.2-0.6-0.4-1.2-0.5-1.8h0c-0.1,0.6-0.3,1.2-0.5,1.7l-1,2.8H137.6z"/>
				<path id="XMLID_1640_" class="st6" d="M141.5,181.7c0.6,0.3,1.4,0.6,2.3,0.6c1.3,0,2.1-0.7,2.1-1.6c0-0.9-0.5-1.4-1.9-1.9
					c-1.6-0.6-2.6-1.4-2.6-2.7c0-1.5,1.3-2.6,3.2-2.6c1,0,1.8,0.2,2.2,0.5l-0.4,1c-0.3-0.2-1-0.5-1.9-0.5c-1.4,0-1.9,0.8-1.9,1.4
					c0,0.9,0.6,1.3,2,1.9c1.7,0.6,2.5,1.4,2.5,2.8c0,1.5-1.1,2.8-3.5,2.8c-1,0-2-0.3-2.5-0.6L141.5,181.7z"/>
				<path id="XMLID_1638_" class="st6" d="M153.4,173.6v9.6h-1.3v-9.6H153.4z"/>
				<path id="XMLID_1636_" class="st6" d="M164,179c-0.1-1.3-0.2-3-0.1-4.1h0c-0.3,1.1-0.8,2.3-1.3,3.6l-1.8,4.7h-1l-1.6-4.6
					c-0.5-1.4-0.9-2.6-1.1-3.7h0c0,1.2-0.1,2.8-0.2,4.2l-0.3,4.1h-1.2l0.7-9.6h1.6l1.7,4.6c0.4,1.2,0.8,2.2,1,3.2h0
					c0.3-1,0.6-2,1-3.2l1.8-4.6h1.6l0.6,9.6h-1.3L164,179z"/>
				<path id="XMLID_1633_" class="st6" d="M168.9,180.2l-1,3h-1.3l3.4-9.6h1.5l3.4,9.6h-1.4l-1.1-3H168.9z M172.2,179.2l-1-2.8
					c-0.2-0.6-0.4-1.2-0.5-1.8h0c-0.1,0.6-0.3,1.2-0.5,1.7l-1,2.8H172.2z"/>
				<path id="XMLID_1631_" class="st6" d="M183.7,182.8c-0.6,0.2-1.7,0.5-3,0.5c-1.5,0-2.7-0.4-3.7-1.3c-0.9-0.8-1.4-2.1-1.4-3.6
					c0-2.9,2-5,5.4-5c1.1,0,2,0.2,2.5,0.4l-0.3,1c-0.5-0.2-1.2-0.4-2.2-0.4c-2.4,0-4,1.5-4,3.9c0,2.4,1.5,3.9,3.8,3.9
					c0.8,0,1.4-0.1,1.7-0.3v-2.9h-2v-1h3.3V182.8z"/>
				<path id="XMLID_1629_" class="st6" d="M190.8,178.7h-3.9v3.5h4.3v1h-5.6v-9.6h5.4v1h-4.1v3h3.9V178.7z"/>
				<path id="XMLID_1627_" class="st6" d="M192.9,183.2v-9.6h1.4l3.2,4.9c0.7,1.1,1.3,2.1,1.8,3.1l0,0c-0.1-1.3-0.1-2.5-0.1-3.9v-4
					h1.2v9.6H199l-3.2-4.9c-0.7-1.1-1.4-2.2-1.9-3.2l0,0c0.1,1.2,0.1,2.4,0.1,4v4.1H192.9z"/>
				<path id="XMLID_1625_" class="st6" d="M207.7,178.7h-3.9v3.5h4.3v1h-5.6v-9.6h5.4v1h-4.1v3h3.9V178.7z"/>
				<path id="XMLID_1623_" class="st6" d="M209.6,181.7c0.6,0.3,1.4,0.6,2.3,0.6c1.3,0,2.1-0.7,2.1-1.6c0-0.9-0.5-1.4-1.9-1.9
					c-1.6-0.6-2.6-1.4-2.6-2.7c0-1.5,1.3-2.6,3.2-2.6c1,0,1.8,0.2,2.2,0.5l-0.4,1c-0.3-0.2-1-0.5-1.9-0.5c-1.4,0-1.9,0.8-1.9,1.4
					c0,0.9,0.6,1.3,2,1.9c1.7,0.6,2.5,1.4,2.5,2.8c0,1.5-1.1,2.8-3.5,2.8c-1,0-2-0.3-2.5-0.6L209.6,181.7z"/>
				<path id="XMLID_1621_" class="st6" d="M221.7,183.2v-4.1l-3.1-5.5h1.5l1.4,2.7c0.4,0.7,0.7,1.3,1,2h0c0.3-0.6,0.6-1.3,1-2
					l1.4-2.7h1.5l-3.3,5.5v4.1H221.7z"/>
				<path id="XMLID_1589_" class="st6" d="M230.6,173.6h1.3v8.6h4.2v1h-5.5V173.6z"/>
				<path id="XMLID_1586_" class="st6" d="M239.2,180.2l-1,3h-1.3l3.4-9.6h1.5l3.4,9.6h-1.4l-1.1-3H239.2z M242.4,179.2l-1-2.8
					c-0.2-0.6-0.4-1.2-0.5-1.8h0c-0.1,0.6-0.3,1.2-0.5,1.7l-1,2.8H242.4z"/>
				<path id="XMLID_1584_" class="st6" d="M246.4,181.7c0.6,0.3,1.4,0.6,2.3,0.6c1.3,0,2.1-0.7,2.1-1.6c0-0.9-0.5-1.4-1.9-1.9
					c-1.6-0.6-2.6-1.4-2.6-2.7c0-1.5,1.3-2.6,3.2-2.6c1,0,1.8,0.2,2.2,0.5l-0.4,1c-0.3-0.2-1-0.5-1.9-0.5c-1.4,0-1.9,0.8-1.9,1.4
					c0,0.9,0.6,1.3,2,1.9c1.7,0.6,2.5,1.4,2.5,2.8c0,1.5-1.1,2.8-3.5,2.8c-1,0-2-0.3-2.5-0.6L246.4,181.7z"/>
				<path id="XMLID_1582_" class="st6" d="M258.3,173.6v9.6H257v-9.6H258.3z"/>
				<path id="XMLID_1565_" class="st6" d="M260.5,173.7c0.8-0.1,1.7-0.2,2.7-0.2c1.8,0,3.2,0.4,4,1.2c0.9,0.8,1.4,1.9,1.4,3.5
					c0,1.6-0.5,2.9-1.4,3.7c-0.9,0.9-2.5,1.4-4.4,1.4c-0.9,0-1.7,0-2.3-0.1V173.7z M261.8,182.2c0.3,0.1,0.8,0.1,1.3,0.1
					c2.7,0,4.2-1.5,4.2-4.1c0-2.3-1.3-3.7-4-3.7c-0.7,0-1.2,0.1-1.5,0.1V182.2z"/>
				<path id="XMLID_1563_" class="st6" d="M275.5,178.7h-3.9v3.5h4.3v1h-5.6v-9.6h5.4v1h-4.1v3h3.9V178.7z"/>
				<path id="XMLID_1560_" class="st6" d="M279.2,180.2l-1,3h-1.3l3.4-9.6h1.5l3.4,9.6h-1.4l-1.1-3H279.2z M282.4,179.2l-1-2.8
					c-0.2-0.6-0.4-1.2-0.5-1.8h0c-0.1,0.6-0.3,1.2-0.5,1.7l-1,2.8H282.4z"/>
				<path id="XMLID_1558_" class="st6" d="M286.4,181.7c0.6,0.3,1.4,0.6,2.3,0.6c1.3,0,2.1-0.7,2.1-1.6c0-0.9-0.5-1.4-1.9-1.9
					c-1.6-0.6-2.6-1.4-2.6-2.7c0-1.5,1.3-2.6,3.2-2.6c1,0,1.8,0.2,2.2,0.5l-0.4,1c-0.3-0.2-1-0.5-1.9-0.5c-1.4,0-1.9,0.8-1.9,1.4
					c0,0.9,0.6,1.3,2,1.9c1.7,0.6,2.5,1.4,2.5,2.8c0,1.5-1.1,2.8-3.5,2.8c-1,0-2-0.3-2.5-0.6L286.4,181.7z"/>
			</g>
		</g>
		<g id="XMLID_1553_">
			<path id="XMLID_1554_" class="st6" d="M173,171.3l-1.8,1.6h-1l1.3-1.6H173z"/>
		</g>
	</g>
</g>
<g>
	<g>
		<path class="st6" d="M130.3,240.4c-1,0.1-1.8,0.1-2.6-0.1c-0.7-0.2-1.4-0.4-1.9-0.7c-0.6-0.3-1.1-0.7-1.6-1.2
			c2.2-0.2,4-0.6,5.5-1.1c1.5-0.5,2.6-1,3.4-1.3c0.8-0.4,1.4-0.6,1.8-0.7c0.4-0.1,0.5,0.2,0.6,0.7v18.4c0,0.7,0,1.4,0,2
			c0,0.6,0.2,1.2,0.4,1.6c0.3,0.5,0.7,0.9,1.3,1.3c0.6,0.4,1.6,0.6,2.8,0.8c0.2,0,0.3,0.1,0.4,0.3c0.1,0.2,0.1,0.3,0.1,0.5
			c0,0.2-0.1,0.4-0.2,0.5c-0.1,0.1-0.2,0.2-0.4,0.2c-0.1,0-0.4,0-1.1,0c-0.6,0-1.3-0.1-2.1-0.1c-0.8,0-1.5-0.1-2.2-0.1
			c-0.7,0-1.1-0.1-1.3-0.1c-0.4,0-1,0-1.9,0.1c-0.8,0-1.7,0.1-2.6,0.1c-0.9,0-1.7,0.1-2.4,0.1c-0.7,0-1.1,0-1.2,0
			c-0.1,0-0.2-0.1-0.3-0.2c-0.1-0.1-0.1-0.3-0.1-0.5c0-0.2,0-0.4,0.1-0.5c0.1-0.1,0.2-0.2,0.4-0.3c0.8-0.2,1.6-0.3,2.2-0.5
			c0.6-0.1,1.1-0.4,1.5-0.7c0.4-0.4,0.7-0.9,0.9-1.6c0.2-0.7,0.3-1.8,0.2-3.1v-10.4c0-0.5,0-1.1,0-1.8
			C130.3,241.3,130.3,240.8,130.3,240.4z"/>
		<path class="st6" d="M138.6,245.1c0.3-0.1,0.6-0.2,0.9-0.3c0-0.3,0-0.8,0-1.6c0-0.8,0.1-1.6,0.1-2.5c0-0.9,0-1.8,0.1-2.6
			c0-0.9,0.1-1.5,0.1-1.9h14.2c0.1-0.1,0.2-0.5,0.5-1.1c0.3-0.7,0.6-1.4,0.9-2.1c0.3-0.7,0.6-1.4,0.8-2.1c0.2-0.7,0.4-1,0.5-1.2
			c0-0.1,0-0.2-0.1-0.3c-0.1-0.1-0.2-0.2-0.4-0.2c-0.2,0-0.3-0.1-0.5-0.1c-0.1,0-0.2,0-0.3,0.1c0,0.1-0.1,0.2-0.3,0.4
			c-0.2,0.2-0.4,0.5-0.7,0.7c-0.3,0.2-0.6,0.5-0.9,0.7c-0.3,0.2-0.6,0.3-1,0.3h-15.1c0,0.7-0.1,1.7-0.1,3.1c0,1.4-0.1,2.9-0.1,4.4
			c0,1.5-0.1,3-0.1,4.3c0,1.4-0.1,2.3-0.1,2.9c0.2-0.2,0.5-0.4,0.8-0.6C138,245.3,138.3,245.2,138.6,245.1z"/>
		<path class="st6" d="M156,260c-0.1,0.4-0.1,0.8-0.2,1.2c1.3,0.8,2.9,1.3,4.7,1.5c2,0.2,4.4-0.1,7-1c-2.3,0.2-4.4-0.2-6.3-1
			c-0.8-0.3-1.6-0.8-2.3-1.4c-0.8-0.6-1.4-1.3-2-2.2c-0.4-0.6-0.7-1.3-1-2C156.2,256.8,156.2,258.4,156,260z"/>
		<path class="st6" d="M169.3,252.6c-0.7,2.9-2.2,5.4-4.2,7c0.6-0.3,1.2-0.7,1.8-1.3c0.3-0.3,0.7-0.8,1-1.3c0.3-0.5,0.6-1.1,0.9-1.8
			c0.3-0.7,0.4-1.5,0.6-2.5C169.3,252.7,169.4,252.6,169.3,252.6C169.4,252.6,169.3,252.6,169.3,252.6z"/>
		<path class="st6" d="M174.9,244.3c-0.5-1.5-1.2-2.9-2.3-4.1c-1.1-1.2-2.5-2.2-4.2-2.9c-1.7-0.7-3.8-1.1-6.2-1.1
			c-0.7,0-1.3,0-2,0.1c0,0,0,0,0.1,0c5.5,0,10,5.6,10,12.5c0,1.2-0.1,2.3-0.4,3.3c0,0.1,0,0.2,0,0.3c-0.1,0.9-0.3,1.7-0.6,2.5
			c-0.3,0.7-0.5,1.3-0.9,1.8c-0.3,0.5-0.6,0.9-1,1.3c-0.5,0.6-1.1,1-1.8,1.3c-0.2,0.1-0.4,0.3-0.5,0.4c1.4,0.2,2.7,0.1,3.9-0.3
			c1.3-0.5,2.4-1.3,3.3-2.3c0.9-1,1.7-2.3,2.2-3.7c0.5-1.4,0.8-2.9,0.9-4.5C175.6,247.4,175.4,245.8,174.9,244.3z"/>
		<path class="st6" d="M178.7,225.1c0,0,0.4,0.5-0.1,0.8c-0.5,0.3,0.4-0.1,1.3-0.2c0.8-0.1,5.1-3.6,5.1-3.6S187.3,220.3,178.7,225.1
			z"/>
		<path class="st6" d="M178,234.2c-3-5.1,1-7.3,1.6-7.9c0.6-0.6-2,0.3-1.4-0.1c0.6-0.4,0.2-0.8,0.2-0.8s-4-1.2-4.6,5.7
			c0,0,0.5-2.1,1.3-2.8c-0.9,1.6-1.2,3.9,1,7.1c4.1,5.8,2.1,13.2,2.1,13.2C180.2,243.1,180.8,239,178,234.2z"/>
		<circle class="st6" cx="177" cy="226.4" r="0.2"/>
		<path class="st6" d="M155.2,260.9c-1.5-1-2.6-2.3-3.5-3.9c-0.9-1.5-1.4-3.2-1.7-4.9c-0.8-1.8-1.2-3.7-1.5-5.6
			c-1.8-0.6-3.9-0.7-6.3-0.3c-2.4,0.4-5.2,1.5-8.2,3.4c3-1,5.7-1.3,8.1-1.1c1,0.1,2,0.3,2.9,0.7c1,0.4,1.8,0.9,2.6,1.7
			c0.8,0.8,1.4,1.8,1.8,3c0.5,1.2,0.7,2.8,0.7,4.7c0,2-0.3,3.7-0.8,4.9c-0.6,1.2-1.3,2.2-2.1,2.9c-0.8,0.7-1.8,1.1-2.8,1.3
			c-1,0.2-1.9,0.3-2.8,0.3c-0.9,0-1.6-0.1-2.2-0.2c-0.6-0.1-0.9-0.2-1-0.3c-0.2-0.1-0.3-0.2-0.4-0.4c-0.1-0.2-0.1-0.3-0.1-0.5
			c0-0.2,0-0.3,0.1-0.4c0.1-0.1,0.1-0.2,0.1-0.3c0.1-0.2,0.2-0.5,0.2-0.8c0-0.3,0-0.7-0.2-1c-0.1-0.3-0.4-0.5-0.7-0.7
			c-0.3-0.2-0.8-0.3-1.4-0.3c-0.6,0-1.1,0.1-1.4,0.3c-0.4,0.2-0.6,0.5-0.8,0.8c-0.2,0.3-0.3,0.6-0.4,0.9c-0.1,0.3-0.1,0.6-0.1,0.8
			c0,1.1,0.4,2,1.2,2.6c0.8,0.6,1.7,1.1,2.8,1.4c1,0.3,2,0.5,2.9,0.5c0.9,0.1,1.5,0.1,1.8,0.1c2.9,0,5.3-0.5,7.2-1.4
			c1.9-1,3.5-2.3,4.6-3.8c0.9-1.2,1.5-2.5,1.8-4C155.6,261.1,155.4,261,155.2,260.9z"/>
		<path class="st6" d="M155.8,255.2c-0.2-0.4-0.3-0.8-0.4-1.2c-0.1-0.3-0.2-0.7-0.3-1.1c-0.5-1.2-1.1-2.3-2-3.3
			c-0.8-0.9-1.6-1.7-2.7-2.3c-0.2,6.3,4,9.9,4,9.9c-2.1-1.1-3.5-3.1-4.5-5.4c0.3,1.8,0.8,3.5,1.7,5.1c0.9,1.6,2.1,2.9,3.5,3.9
			c0.2,0.1,0.3,0.2,0.5,0.3c0.1-0.4,0.2-0.8,0.2-1.2C156.2,258.4,156.2,256.8,155.8,255.2z"/>
		<path class="st6" d="M159.7,236.7C159.7,236.7,159.7,236.7,159.7,236.7c-1.5,0.2-2.8,0.6-3.9,1.3c-1.6,0.9-2.9,2.1-3.8,3.6
			c-0.2,0.2-0.3,0.5-0.5,0.8c-0.7,1.9-1,3.6-1,5.1c1,0.6,1.9,1.3,2.7,2.3c0.8,1,1.5,2.1,2,3.3c-0.2-1-0.3-2.2-0.3-3.4
			c0-0.2,0-0.6,0-1.2c0-0.6,0.1-1.3,0.2-2.1c0.1-0.8,0.3-1.6,0.7-2.5c0.3-0.9,0.7-1.7,1.3-2.4c0.5-0.7,1.2-1.4,2.1-1.9
			c0.8-0.5,1.9-0.8,3.1-0.8c0.2,0,0.5,0,1,0.1c0.4,0.1,0.9,0.2,1.5,0.4c0.5,0.2,1.1,0.6,1.7,1.1c0.1,0.1,0.3,0.3,0.4,0.4
			c0,0,0.1,0.1,0.1,0.1c0.1,0,0.2,0.1,0.3,0.2C165.3,238.3,162.7,236.7,159.7,236.7z"/>
		<path class="st6" d="M178.2,243.8c-0.1-1.6-0.5-3.1-1.1-4.5c-0.6-1.5-1.5-2.7-2.7-3.8c-1.2-1.1-2.7-1.9-4.5-2.4
			c-1.8-0.5-3.9-0.7-6.3-0.4c4,0.2,8.3,1.8,9.6,5.5c0,0-1.8-2.6-5.6-3.3c2.6,1.5,4.7,4,5.6,7c0.6,1.5,1.1,3.2,1.3,5
			c0.3,2.8,0,5.5-0.8,7.8c0.9-0.6,1.7-1.3,2.3-2.2c0.8-1.1,1.4-2.4,1.8-3.9C178.1,246.9,178.3,245.4,178.2,243.8z"/>
		<g>
			<path class="st6" d="M157.5,275.9c0.1-1.6,1-4.1,1.9-5.8c-0.4-0.1-0.9-0.1-1.3-0.1c-2.8,3.1-6.8,7.8-9.1,7.8
				c-1.1,0-2.9-1.2-2.8-2.7c0.1-3,6-5.4,10.6-5.4c0.3,0,0.6,0,0.8,0c1.4-1.3,2.9-2.9,3.7-3.8c0.5-0.6,1-1.1,1-1.4
				c0-0.1,0-0.2-0.1-0.2c0,0,0,0,0.1,0c0.3,0,0.5,0.2,0.8,0.5c0.3,0.3,0.6,0.7,0.5,0.9c-0.9,1.1-2,2.9-2.7,4.4
				c0.9,0.3,1.7,0.6,2.3,1.1c0,0,0,0.1-0.1,0.1c-0.8-0.4-1.5-0.7-2.3-0.9c-1.4,2.9-1.9,4.8-1.9,5.9c0,0.4,0,1,0.5,1
				c0.5,0,1.2-0.4,1.3-0.5c0.1-0.1,0.1,0,0,0.1c-0.2,0.3-0.8,0.9-1.1,0.9C158.2,277.7,157.5,276.6,157.5,275.9z M148,276.9
				c1.6,0,5.9-3.4,9.3-7c-5.5,0.2-10.2,3.6-10.2,5.9C147,276.4,147.3,276.9,148,276.9z M158.4,269.6c0.4,0,0.8,0.1,1.2,0.2
				c0.8-1.6,1.8-3.4,2.7-4.7C161.1,266.6,159.8,268.2,158.4,269.6z"/>
			<path class="st6" d="M166,272.3c-0.6,0.8-1.1,1.6-1.1,1.8c0,0,0,0.1,0.1,0.1c0.2,0,2-1.5,3.4-2.9c0.1-0.1,0.2,0,0.1,0.1
				c-0.2,0.3-0.8,1-1.5,1.7c-0.7,0.7-2,2-2.3,2c-0.5,0-1.2-0.7-1.1-1.1c0,0,0-0.1,0-0.1c0.1-0.2,0.5-0.9,1.5-2.2
				c0.5-0.7,1.4-1.7,1.4-1.8c0,0,0,0,0,0c-0.1,0-1,0.6-2.4,1.8c-1,1-2.8,2.8-2.8,3.2c0,0,0,0,0,0c0.1,0,0,0.1-0.1,0.1
				c-0.2,0-0.8-0.7-0.8-1c0.2-0.6,1.6-2.5,2.5-3.8c0.3-0.4,0.4-0.8,0.2-0.9c0,0,0.3-0.1,0.5,0.2c0.4,0.3,0.6,0.6,0.6,0.8
				c0,0.2-1.2,1.7-2.1,2.9c0.5-0.6,1.1-1.2,1.7-1.8c0.5-0.5,2.2-2.2,2.7-2.2c0.1,0,0.4,0.1,0.6,0.3c0.4,0.4,0.5,0.7,0.5,0.8
				c0,0,0,0,0,0.1C167.1,271,166.7,271.3,166,272.3z M165.1,267.7c-0.2,0-0.6,0.1-0.8,0.4c0,0-0.1,0-0.1,0c0.1-0.4,0.8-1.2,1.5-1.2
				c0.4,0,0.8,0.7,1.3,0.7c0.4,0,0.9-0.3,1.3-0.8c0,0,0.1,0,0.1,0c-0.1,0.7-1.2,1.6-1.9,1.6C166,268.4,165.5,267.7,165.1,267.7z"/>
			<path class="st6" d="M170.5,269.7c0.3-0.3,1-0.7,1.4-0.7c0.9,0,1.5,0.7,1.6,1.5c0.8,0,1.5,0,1.6,0c0.1,0,0.3,0.1-0.1,0.2
				c-0.2,0.1-0.9,0.2-1.6,0.2c-0.1,1.2-2.7,4.1-4.5,4.1c-1,0-2-0.5-1.9-1.5C167.1,272.2,169.1,270.2,170.5,269.7z M168.3,274.5
				c0.9,0,3.2-2.1,4.1-3.6c-0.5,0-0.9-0.2-1.2-0.3c-1.6,0.5-3.1,2.8-3.1,3.6C168,274.4,168,274.5,168.3,274.5z M172.2,269.4
				c-0.3,0.1-0.5,0.3-0.6,0.5c-0.1,0.3,0.3,0.4,1,0.5c0.1-0.2,0.1-0.3,0.1-0.5C172.7,269.6,172.5,269.4,172.2,269.4z"/>
			<path class="st6" d="M175.9,271.9c1.6-0.6,2.9-0.8,3.6-0.9c0.1,0,0.1,0.1,0,0.1c-0.6,0.2-1.6,0.4-3,1c0.5,0.2,0.9,0.6,0.9,0.9
				c0,0.3-0.1,0.5-0.6,0.9c-0.8,0.6-2.2,1.2-3.2,1.2c-0.7,0-1.3-0.8-1.2-1.2c0.2-0.5,1.7-1.4,3.1-1.9c-0.6-0.2-1.3-0.5-1.2-1
				c0-0.9,2.2-2.1,3.4-2.1c0.6,0,1.2,0.6,1.2,1c0,0.5-1.1,1-1.4,1c-0.1,0-0.1,0-0.1-0.1c0.2-0.2,1-0.9,1-1.1c0,0,0-0.1-0.1-0.1
				c-0.5,0-1.3,0.3-1.9,0.7c-0.8,0.5-1.2,1-1.1,1.2C175.4,271.7,175.7,271.9,175.9,271.9z M176.3,272.5c0-0.1,0-0.1-0.2-0.2
				c-0.4,0.2-0.7,0.3-1.2,0.6c-1.3,0.7-2.1,1.5-2.1,1.6c0.2,0.1,2-0.8,2.6-1.1C175.6,273.3,176.3,272.9,176.3,272.5z"/>
		</g>
		<g>
			<path class="st6" d="M128.2,283c0.3-0.8,1.1-2.8,1.2-3.2c0-0.1,0.1-0.2,0.1-0.2c0,0,0-0.1-0.1-0.1c-0.1,0-0.2,0-0.2,0
				c0,0-0.1,0-0.1,0c0,0,0,0,0.1,0c0.2,0,0.5,0,0.6,0c0,0,0.3,0,0.4,0c0.1,0,0.1,0,0.1,0s0,0-0.1,0c0,0-0.2,0-0.3,0.1
				c-0.1,0.1-0.2,0.1-0.3,0.5c-0.1,0.2-0.3,0.8-0.6,1.5c-0.3,0.8-0.6,1.4-0.7,1.7c-0.2,0.3-0.2,0.4-0.2,0.4c-0.1,0-0.1-0.1-0.2-0.4
				l-1.4-3.5c-0.1-0.3-0.2-0.4-0.4-0.4c-0.1,0-0.2,0-0.2,0c0,0,0,0,0,0c0,0,0.1,0,0.1,0c0.3,0,0.6,0,0.7,0c0.1,0,0.3,0,0.5,0
				c0.1,0,0.2,0,0.2,0s0,0-0.1,0c-0.1,0-0.2,0-0.2,0c-0.1,0-0.1,0.1-0.1,0.1c0,0.1,0.1,0.3,0.2,0.5L128.2,283z"/>
			<path class="st6" d="M131.2,282.3c0,0.5,0,0.9,0,1.1c0,0.1,0,0.2,0.2,0.3c0.1,0,0.2,0,0.2,0c0,0,0,0,0,0c0,0,0,0-0.1,0
				c-0.3,0-0.6,0-0.6,0c0,0-0.3,0-0.5,0c-0.1,0-0.1,0-0.1,0c0,0,0,0,0,0c0,0,0.1,0,0.2,0c0.1,0,0.1-0.1,0.1-0.3c0-0.2,0-0.6,0-1.1
				v-0.9c0-0.8,0-0.9,0-1c0-0.2-0.1-0.2-0.2-0.3c-0.1,0-0.1,0-0.2,0c0,0,0,0,0,0c0,0,0,0,0.1,0c0.2,0,0.5,0,0.5,0c0,0,0.3,0,0.5,0
				c0.1,0,0.1,0,0.1,0c0,0,0,0,0,0c0,0-0.1,0-0.1,0c-0.1,0-0.2,0.1-0.2,0.3c0,0.2,0,0.3,0,1V282.3z"/>
			<path class="st6" d="M132.4,281.4c0-0.8,0-0.9,0-1c0-0.2,0-0.2-0.2-0.3c0,0-0.1,0-0.2,0c0,0,0,0,0,0c0,0,0,0,0.1,0
				c0.2,0,0.6,0,0.6,0c0.1,0,0.4,0,0.7,0c0.5,0,1.4,0,2,0.6c0.3,0.3,0.5,0.7,0.5,1.2c0,0.6-0.3,1.1-0.5,1.4
				c-0.2,0.2-0.7,0.6-1.5,0.6c-0.2,0-0.5,0-0.7,0c-0.2,0-0.4,0-0.4,0c0,0-0.1,0-0.2,0c-0.1,0-0.2,0-0.3,0c-0.1,0-0.1,0-0.1,0
				c0,0,0,0,0,0c0,0,0.1,0,0.2,0c0.1,0,0.1-0.1,0.1-0.3c0-0.2,0-0.6,0-1.1V281.4z M132.9,282c0,0.5,0,1,0,1.1c0,0.1,0,0.3,0.1,0.3
				c0.1,0.1,0.2,0.2,0.8,0.2c0.5,0,0.9-0.2,1.2-0.4c0.3-0.2,0.4-0.7,0.4-1.2c0-0.6-0.3-1-0.5-1.2c-0.5-0.5-1-0.5-1.6-0.5
				c-0.1,0-0.3,0-0.3,0c0,0-0.1,0-0.1,0.1V282z"/>
			<path class="st6" d="M137.4,280.1c0.1-0.2,0.1-0.2,0.1-0.2c0.1,0,0.1,0.1,0.1,0.2c0.1,0.2,0.9,2.2,1.2,2.9
				c0.2,0.4,0.3,0.5,0.4,0.5c0.1,0,0.1,0,0.2,0c0,0,0.1,0,0.1,0c0,0-0.1,0-0.1,0c-0.1,0-0.4,0-0.8,0c-0.1,0-0.2,0-0.2,0c0,0,0,0,0,0
				c0,0,0.1-0.1,0-0.1l-0.5-1.1c0,0,0,0,0,0h-1.2c0,0,0,0-0.1,0l-0.3,0.8c0,0.1-0.1,0.2-0.1,0.3c0,0.1,0.1,0.1,0.2,0.1h0
				c0,0,0.1,0,0.1,0c0,0,0,0-0.1,0c-0.1,0-0.4,0-0.5,0c-0.1,0-0.3,0-0.5,0c-0.1,0-0.1,0-0.1,0c0,0,0,0,0,0c0,0,0.1,0,0.1,0
				c0.2,0,0.3-0.2,0.4-0.4L137.4,280.1z M137.9,282.2C138,282.2,138,282.1,137.9,282.2l-0.5-1.4c0-0.1-0.1-0.1-0.1,0l-0.5,1.3
				c0,0,0,0,0,0H137.9z"/>
			<path class="st6" d="M141.9,282.1c0,0.5,0,1,0,1.2c0,0.2,0.1,0.3,0.2,0.3c0.1,0,0.2,0,0.3,0c0,0,0,0,0,0c0,0,0,0-0.1,0
				c-0.3,0-0.7,0-0.7,0s-0.4,0-0.6,0c-0.1,0-0.1,0-0.1,0c0,0,0,0,0,0c0.1,0,0.1,0,0.2,0c0.1,0,0.1-0.1,0.2-0.3c0-0.2,0-0.7,0-1.2v-1
				c0-0.9,0-1.1,0-1.2c0-0.2-0.1-0.3-0.2-0.3c-0.1,0-0.1,0-0.2,0c0,0,0,0,0,0c0,0,0,0,0.1,0c0.2,0,0.5,0,0.6,0s0.4,0,0.6,0
				c0.1,0,0.1,0,0.1,0c0,0,0,0,0,0c0,0-0.1,0-0.1,0c-0.2,0-0.2,0.1-0.2,0.3c0,0.2,0,0.3,0,1.2V282.1z"/>
			<path class="st6" d="M143.6,283c0,0.4,0.1,0.5,0.2,0.6c0.1,0,0.2,0,0.3,0c0,0,0,0,0,0c0,0,0,0-0.1,0c-0.3,0-0.5,0-0.5,0
				c0,0-0.3,0-0.5,0c-0.1,0-0.1,0-0.1,0c0,0,0,0,0,0c0,0,0.1,0,0.2,0c0.1,0,0.1-0.2,0.1-0.6v-2.8c0-0.2,0-0.2,0.1-0.2
				c0.1,0,0.1,0.1,0.2,0.1c0.1,0.1,0.8,0.9,1.6,1.7c0.5,0.5,1,1.1,1.2,1.3l-0.1-2.4c0-0.3,0-0.4-0.2-0.5c-0.1,0-0.2,0-0.2,0
				c0,0,0,0,0,0c0,0,0,0,0.1,0c0.2,0,0.5,0,0.5,0c0.1,0,0.2,0,0.4,0c0.1,0,0.1,0,0.1,0c0,0,0,0-0.1,0c0,0-0.1,0-0.1,0
				c-0.2,0-0.2,0.1-0.2,0.4l0,2.8c0,0.3,0,0.3,0,0.3c-0.1,0-0.1,0-0.4-0.3c-0.1,0-0.8-0.8-1.3-1.3c-0.6-0.6-1.1-1.2-1.3-1.4
				L143.6,283z"/>
			<path class="st6" d="M147.4,283.6c-0.1,0-0.1-0.1-0.1-0.2c0-0.2,0-0.4,0-0.5c0-0.1,0-0.1,0-0.1c0,0,0,0,0,0.1c0,0,0,0.1,0,0.2
				c0.1,0.4,0.5,0.5,0.8,0.5c0.5,0,0.8-0.3,0.8-0.6c0-0.3-0.2-0.5-0.6-0.8l-0.2-0.2c-0.5-0.4-0.7-0.7-0.7-1c0-0.6,0.5-0.9,1.1-0.9
				c0.2,0,0.4,0,0.5,0.1c0.1,0,0.1,0,0.2,0c0,0,0.1,0,0.1,0c0,0,0,0.2,0,0.5c0,0.1,0,0.1,0,0.1c0,0,0,0,0-0.1c0-0.1,0-0.2-0.1-0.2
				c0-0.1-0.2-0.2-0.7-0.2c-0.4,0-0.7,0.2-0.7,0.5c0,0.3,0.2,0.5,0.7,0.8l0.1,0.1c0.6,0.4,0.8,0.8,0.8,1.2c0,0.3-0.1,0.6-0.5,0.8
				c-0.2,0.1-0.5,0.2-0.8,0.2C147.8,283.8,147.6,283.7,147.4,283.6z"/>
			<path class="st6" d="M151.5,282.3c0,0.5,0,0.9,0,1.1c0,0.1,0,0.2,0.2,0.3c0.1,0,0.2,0,0.2,0c0,0,0,0,0,0c0,0,0,0-0.1,0
				c-0.3,0-0.6,0-0.6,0c0,0-0.4,0-0.5,0c-0.1,0-0.1,0-0.1,0c0,0,0,0,0,0c0,0,0.1,0,0.1,0c0.1,0,0.1-0.1,0.1-0.3c0-0.2,0-0.6,0-1.1
				v-2l-0.7,0c-0.3,0-0.4,0-0.5,0.2c-0.1,0.1-0.1,0.1-0.1,0.2c0,0,0,0-0.1,0c0,0,0,0,0,0c0-0.1,0.1-0.5,0.1-0.5c0,0,0-0.1,0.1-0.1
				c0,0,0.1,0,0.2,0.1c0.1,0,0.3,0,0.4,0h1.9c0.2,0,0.3,0,0.4,0c0.1,0,0.1,0,0.1,0c0,0,0,0,0,0.1c0,0.1,0,0.5,0,0.6c0,0,0,0.1,0,0.1
				c0,0,0,0,0-0.1l0-0.1c0-0.1-0.1-0.3-0.6-0.3l-0.6,0V282.3z"/>
			<path class="st6" d="M153.9,282.3c0,0.5,0,0.9,0,1.1c0,0.1,0,0.2,0.2,0.3c0.1,0,0.2,0,0.2,0c0,0,0,0,0,0c0,0,0,0-0.1,0
				c-0.3,0-0.6,0-0.6,0c0,0-0.3,0-0.5,0c-0.1,0-0.1,0-0.1,0c0,0,0,0,0,0c0,0,0.1,0,0.2,0c0.1,0,0.1-0.1,0.1-0.3c0-0.2,0-0.6,0-1.1
				v-0.9c0-0.8,0-0.9,0-1c0-0.2-0.1-0.2-0.2-0.3c-0.1,0-0.1,0-0.2,0c0,0,0,0,0,0c0,0,0,0,0.1,0c0.2,0,0.5,0,0.5,0c0,0,0.3,0,0.5,0
				c0.1,0,0.1,0,0.1,0c0,0,0,0,0,0c0,0-0.1,0-0.1,0c-0.1,0-0.2,0.1-0.2,0.3c0,0.2,0,0.3,0,1V282.3z"/>
			<path class="st6" d="M156.4,282.3c0,0.5,0,0.9,0,1.1c0,0.1,0,0.2,0.2,0.3c0.1,0,0.2,0,0.2,0c0,0,0,0,0,0c0,0,0,0-0.1,0
				c-0.3,0-0.6,0-0.6,0c0,0-0.4,0-0.5,0c-0.1,0-0.1,0-0.1,0c0,0,0,0,0,0c0,0,0.1,0,0.1,0c0.1,0,0.1-0.1,0.1-0.3c0-0.2,0-0.6,0-1.1
				v-2l-0.7,0c-0.3,0-0.4,0-0.5,0.2c-0.1,0.1-0.1,0.1-0.1,0.2c0,0,0,0-0.1,0c0,0,0,0,0,0c0-0.1,0.1-0.5,0.1-0.5c0,0,0-0.1,0.1-0.1
				c0,0,0.1,0,0.2,0.1c0.1,0,0.3,0,0.4,0h1.9c0.2,0,0.3,0,0.4,0c0.1,0,0.1,0,0.1,0c0,0,0,0,0,0.1c0,0.1,0,0.5,0,0.6c0,0,0,0.1,0,0.1
				c0,0,0,0,0-0.1l0-0.1c0-0.1-0.1-0.3-0.6-0.3l-0.6,0V282.3z"/>
			<path class="st6" d="M158.2,281.4c0-0.8,0-0.9,0-1c0-0.2,0-0.2-0.2-0.3c0,0-0.1,0-0.2,0c0,0,0,0,0,0c0,0,0,0,0.1,0
				c0.2,0,0.5,0,0.6,0c0,0,0.4,0,0.5,0c0.1,0,0.1,0,0.1,0c0,0,0,0,0,0c0,0-0.1,0-0.1,0c-0.1,0-0.2,0.1-0.2,0.3c0,0.2,0,0.3,0,1v0.7
				c0,0.7,0.2,1,0.4,1.2c0.2,0.2,0.5,0.3,0.7,0.3c0.3,0,0.6-0.1,0.8-0.3c0.2-0.3,0.3-0.7,0.3-1.2v-0.6c0-0.8,0-0.9,0-1
				c0-0.2,0-0.2-0.2-0.3c0,0-0.1,0-0.2,0c0,0,0,0,0,0c0,0,0,0,0.1,0c0.2,0,0.5,0,0.5,0c0,0,0.3,0,0.4,0c0.1,0,0.1,0,0.1,0
				c0,0,0,0,0,0c0,0-0.1,0-0.1,0c-0.1,0-0.2,0.1-0.2,0.3c0,0.2,0,0.3,0,1v0.5c0,0.5-0.1,1.1-0.5,1.5c-0.4,0.3-0.8,0.4-1.1,0.4
				c-0.2,0-0.7,0-1-0.3c-0.2-0.2-0.4-0.6-0.4-1.3V281.4z"/>
			<path class="st6" d="M162.3,283.2c-0.5-0.4-0.6-1-0.6-1.4c0-0.3,0.1-0.9,0.6-1.3c0.3-0.3,0.8-0.5,1.5-0.5c0.2,0,0.5,0,0.7,0.1
				c0.2,0,0.3,0.1,0.5,0.1c0.1,0,0.1,0,0.1,0.1c0,0,0,0.1,0,0.3c0,0.2,0,0.4,0,0.5c0,0.1,0,0.1-0.1,0.1c0,0,0,0,0-0.1
				c0-0.2-0.1-0.4-0.2-0.5c-0.2-0.1-0.5-0.3-1-0.3c-0.6,0-1,0.2-1.1,0.3c-0.4,0.3-0.5,0.8-0.5,1.3c0,0.9,0.7,1.8,1.8,1.8
				c0.4,0,0.6,0,0.8-0.2c0.1-0.1,0.2-0.3,0.2-0.4c0-0.1,0-0.1,0.1-0.1c0,0,0,0,0,0.1c0,0-0.1,0.5-0.1,0.6c0,0.1,0,0.1-0.1,0.1
				c-0.2,0.1-0.6,0.1-0.9,0.1C163.2,283.8,162.7,283.6,162.3,283.2z"/>
			<path class="st6" d="M166.3,282.3c0,0.5,0,0.9,0,1.1c0,0.1,0,0.2,0.2,0.3c0.1,0,0.2,0,0.2,0c0,0,0,0,0,0c0,0,0,0-0.1,0
				c-0.3,0-0.6,0-0.6,0c0,0-0.3,0-0.5,0c-0.1,0-0.1,0-0.1,0c0,0,0,0,0,0c0,0,0.1,0,0.2,0c0.1,0,0.1-0.1,0.1-0.3c0-0.2,0-0.6,0-1.1
				v-0.9c0-0.8,0-0.9,0-1c0-0.2-0.1-0.2-0.2-0.3c-0.1,0-0.1,0-0.2,0c0,0,0,0,0,0c0,0,0,0,0.1,0c0.2,0,0.5,0,0.5,0c0,0,0.3,0,0.5,0
				c0.1,0,0.1,0,0.1,0c0,0,0,0,0,0c0,0-0.1,0-0.1,0c-0.1,0-0.2,0.1-0.2,0.3c0,0.2,0,0.3,0,1V282.3z"/>
			<path class="st6" d="M169.1,280c1.1,0,2,0.7,2,1.8c0,1.1-0.8,2-2,2c-1.4,0-2-1-2-1.9C167.1,281.1,167.7,280,169.1,280z
				 M169.2,283.6c0.5,0,1.4-0.2,1.4-1.6c0-1.2-0.7-1.8-1.5-1.8c-0.8,0-1.4,0.5-1.4,1.6C167.6,282.9,168.3,283.6,169.2,283.6z"/>
			<path class="st6" d="M171.9,283c0,0.4,0.1,0.5,0.2,0.6c0.1,0,0.2,0,0.3,0c0,0,0,0,0,0c0,0,0,0-0.1,0c-0.3,0-0.5,0-0.5,0
				s-0.3,0-0.5,0c-0.1,0-0.1,0-0.1,0c0,0,0,0,0,0c0,0,0.1,0,0.2,0c0.1,0,0.1-0.2,0.1-0.6v-2.8c0-0.2,0-0.2,0.1-0.2
				c0.1,0,0.1,0.1,0.2,0.1c0.1,0.1,0.8,0.9,1.6,1.7c0.5,0.5,1,1.1,1.2,1.3l-0.1-2.4c0-0.3,0-0.4-0.2-0.5c-0.1,0-0.2,0-0.2,0
				c0,0,0,0,0,0c0,0,0,0,0.1,0c0.2,0,0.5,0,0.5,0c0.1,0,0.2,0,0.4,0c0.1,0,0.1,0,0.1,0c0,0,0,0-0.1,0c0,0-0.1,0-0.1,0
				c-0.2,0-0.2,0.1-0.2,0.4l0,2.8c0,0.3,0,0.3,0,0.3c-0.1,0-0.1,0-0.4-0.3c-0.1,0-0.8-0.8-1.3-1.3c-0.6-0.6-1.1-1.2-1.3-1.4
				L171.9,283z"/>
			<path class="st6" d="M176.8,280.1c0.1-0.2,0.1-0.2,0.1-0.2c0.1,0,0.1,0.1,0.1,0.2c0.1,0.2,0.9,2.2,1.2,2.9
				c0.2,0.4,0.3,0.5,0.4,0.5c0.1,0,0.1,0,0.2,0c0,0,0.1,0,0.1,0c0,0-0.1,0-0.1,0c-0.1,0-0.4,0-0.8,0c-0.1,0-0.2,0-0.2,0c0,0,0,0,0,0
				c0,0,0.1-0.1,0-0.1l-0.5-1.1c0,0,0,0,0,0h-1.2c0,0,0,0-0.1,0l-0.3,0.8c0,0.1-0.1,0.2-0.1,0.3c0,0.1,0.1,0.1,0.2,0.1h0
				c0,0,0.1,0,0.1,0c0,0,0,0-0.1,0c-0.1,0-0.4,0-0.5,0c-0.1,0-0.3,0-0.5,0c-0.1,0-0.1,0-0.1,0c0,0,0,0,0,0c0,0,0.1,0,0.1,0
				c0.2,0,0.3-0.2,0.4-0.4L176.8,280.1z M177.4,282.2C177.4,282.2,177.4,282.1,177.4,282.2l-0.5-1.4c0-0.1-0.1-0.1-0.1,0l-0.5,1.3
				c0,0,0,0,0,0H177.4z"/>
			<path class="st6" d="M179.7,282.3c0,0.7,0,1,0.1,1.1c0.1,0.1,0.3,0.1,0.7,0.1c0.3,0,0.5,0,0.6-0.1c0.1-0.1,0.1-0.2,0.1-0.3
				c0,0,0-0.1,0.1-0.1c0,0,0,0,0,0.1c0,0.1,0,0.3-0.1,0.5c0,0.1-0.1,0.1-0.3,0.1c-0.4,0-0.6,0-0.9,0c-0.2,0-0.4,0-0.5,0
				c0,0-0.1,0-0.2,0c-0.1,0-0.2,0-0.3,0c-0.1,0-0.1,0-0.1,0c0,0,0,0,0,0c0,0,0.1,0,0.2,0c0.1,0,0.1-0.1,0.1-0.3c0-0.2,0-0.6,0-1.1
				v-0.9c0-0.8,0-0.9,0-1c0-0.2,0-0.2-0.2-0.3c0,0-0.1,0-0.2,0c0,0,0,0,0,0c0,0,0,0,0.1,0c0.2,0,0.5,0,0.6,0c0,0,0.4,0,0.6,0
				c0.1,0,0.1,0,0.1,0c0,0,0,0,0,0c0,0-0.1,0-0.2,0c-0.1,0-0.2,0.1-0.2,0.3c0,0.2,0,0.3,0,1V282.3z"/>
		</g>
		<g>
			<g>
				<path class="st6" d="M164,278.8C164,278.8,164,278.8,164,278.8c0.1,0,1-0.7,1.8-1.4c0,0,0.1,0,0.1,0c-0.1,0.2-0.4,0.5-0.8,0.8
					c-0.4,0.4-1,1-1.2,1c-0.1,0-0.2-0.1-0.3-0.1c-0.1-0.1-0.3-0.3-0.2-0.4c0,0,0-0.1,0-0.1c0.1-0.2,0.2-0.4,0.5-0.8l-0.3,0.3
					c-0.6,0.6-1.2,1.1-1.4,1.1c-0.2,0-0.6-0.3-0.6-0.6c0-0.1,0-0.3,0.1-0.4c0.4-0.7,1.6-1.8,2.3-2c0,0,0.1,0,0.1,0
					c0.5,0,0.7,0.2,0.7,0.3c0.5-0.7,1-1.4,1.2-1.8c0.1-0.2,0.2-0.4,0.1-0.5c0,0,0.1,0,0.2,0.1c0.2,0.1,0.3,0.4,0.3,0.5c0,0,0,0,0,0
					l-1.4,2C165.1,277,164,278.6,164,278.8z M162,278.8C162,278.8,162,278.8,162,278.8c0.2,0,1.5-0.7,2.1-1.5
					c0.1-0.2,0.4-0.6,0.4-0.7c0-0.1-0.1-0.1-0.1-0.1c-0.6,0-1.7,1.2-2.1,1.7C162.1,278.6,162,278.7,162,278.8z"/>
				<path class="st6" d="M167.5,276.3c0.3,0,0.7,0.4,0.7,0.6c0,0.3-1.4,1.2-2.3,1.2c-0.2,0.3-0.3,0.6-0.3,0.7c0,0.1,0,0.1,0.1,0.1
					c0.1,0,0.3-0.1,0.4-0.1c0.6-0.3,1.5-0.8,2.3-1.4c0,0,0.1,0,0.1,0c-0.8,0.8-2.1,1.8-2.7,1.8c-0.3,0-0.8-0.4-0.8-0.7
					c0-0.2,0.1-0.4,0.3-0.7c0.3-0.4,0.8-0.9,1.2-1.2C166.9,276.4,167.2,276.3,167.5,276.3z M166,278c0.4-0.1,0.9-0.4,1.3-0.7
					c0.4-0.3,0.6-0.6,0.5-0.7C167.4,276.6,166.5,277.3,166,278z"/>
			</g>
		</g>
		<g>
			<path class="st6" d="M143.7,286.8c0-0.2,0-0.4,0-0.5c0-0.1,0-0.1-0.1-0.1c-0.1,0-0.4,0.2-0.5,0.2c0,0,0,0-0.1,0c0,0,0,0,0,0
				s0,0,0-0.1c0,0,0.8-0.5,1-0.6c0,0,0.1-0.1,0.1-0.1c0,0,0.1,0,0.1,0.1c0,0,0,0.4,0,1.1v0.8c0,0.4,0,0.8,0,0.9c0,0.1,0,0.2,0.2,0.2
				c0.1,0,0.2,0,0.3,0c0,0,0,0,0,0c0,0,0,0-0.1,0c-0.3,0-0.6,0-0.7,0c-0.1,0-0.4,0-0.7,0c0,0-0.1,0-0.1,0c0,0,0,0,0,0
				c0,0,0.3,0,0.3,0c0.1,0,0.2-0.1,0.2-0.2c0-0.2,0-0.5,0-0.9L143.7,286.8z"/>
			<path class="st6" d="M145.4,288c0-0.5,0.4-0.8,0.8-0.9c-0.3-0.2-0.6-0.4-0.6-0.8c0-0.3,0.3-0.8,1-0.8c0.5,0,0.9,0.2,0.9,0.6
				c0,0.4-0.4,0.7-0.6,0.8c0.3,0.2,0.8,0.4,0.8,0.9c0,0.5-0.4,0.9-1.1,0.9C145.8,288.8,145.4,288.5,145.4,288z M146.4,288.6
				c0.3,0,0.6-0.2,0.6-0.6c0-0.4-0.3-0.6-0.7-0.8c-0.2,0.1-0.5,0.4-0.5,0.8C145.8,288.4,146.1,288.6,146.4,288.6z M146.5,285.7
				c-0.4,0-0.5,0.3-0.5,0.5c0,0.3,0.2,0.4,0.6,0.6c0.1-0.1,0.4-0.2,0.4-0.6C146.9,285.9,146.7,285.7,146.5,285.7z"/>
			<path class="st6" d="M147.8,287.6c0-0.8,0.6-1.7,1.5-2c0,0,0.1,0,0.1,0c0,0,0.1,0,0.1,0c0,0-0.1,0.1-0.1,0.1
				c-0.5,0.3-1.1,1-1.1,1.9c0,0.5,0.2,1,0.6,1c0.3,0,0.5-0.2,0.5-0.7c0-0.6-0.3-0.8-0.6-0.8c-0.1,0-0.2,0-0.2,0c0,0-0.1,0-0.1,0
				c0,0,0,0,0,0c0,0,0,0,0-0.1c0.1-0.1,0.3-0.2,0.5-0.2c0.6,0,0.9,0.5,0.9,0.8c0,0.6-0.5,1.1-1.1,1.1
				C148.3,288.8,147.8,288.4,147.8,287.6z"/>
			<path class="st6" d="M152.5,286.7c0,1.2-1,1.9-1.5,2.1c0,0,0,0-0.1,0c0,0,0,0,0,0c0,0,0-0.1,0.1-0.1c0.4-0.3,1.1-0.9,1.1-1.9
				c0-0.7-0.3-1.1-0.6-1.1c-0.3,0-0.5,0.3-0.5,0.6c0,0.6,0.4,0.8,0.6,0.8c0.1,0,0.2,0,0.3,0c0,0,0.1,0,0.1,0c0,0,0,0,0,0
				c0,0,0,0,0,0c-0.1,0.1-0.3,0.2-0.6,0.2c-0.6,0-0.9-0.5-0.9-0.8c0-0.6,0.4-1,1.1-1C152.1,285.6,152.5,286.1,152.5,286.7z"/>
			<path class="st6" d="M154.2,287.4c0.1,0,0.1,0,0.1,0.1c0,0.1-0.1,0.1-0.2,0.1c-0.2,0-0.9,0.2-1.1,0.2c-0.1,0-0.2,0.1-0.2,0.1
				c0,0,0,0,0-0.1l0.1-0.3c0,0,0-0.1,0.1-0.1H154.2z"/>
			<path class="st6" d="M154.7,288.8C154.6,288.8,154.6,288.7,154.7,288.8c-0.1-0.1,0-0.1,0-0.2c0.6-0.5,1.4-1.2,1.4-2
				c0-0.7-0.4-0.8-0.6-0.8c-0.2,0-0.3,0-0.4,0.2c-0.1,0.1-0.2,0.3-0.2,0.4c0,0,0,0.1-0.1,0.1c0,0,0,0,0-0.1c0,0,0-0.4,0-0.5
				c0,0,0-0.1,0.1-0.1c0.2-0.1,0.4-0.2,0.8-0.2c0.7,0,1,0.4,1,0.9c0,0.8-0.9,1.5-1.4,1.9c0,0,0,0,0,0h0.3c0.1,0,0.6,0,0.7,0
				c0.3,0,0.4-0.2,0.5-0.4c0,0,0-0.1,0.1-0.1c0,0,0,0,0,0.1c0,0.1-0.1,0.5-0.1,0.6c0,0.1-0.1,0.1-0.4,0.1H154.7z"/>
			<path class="st6" d="M158.2,288.8c-0.8,0-1-1-1-1.5c0-1,0.3-1.7,1.1-1.7c0.8,0,1,0.9,1,1.5C159.3,288.1,158.9,288.8,158.2,288.8z
				 M158.1,285.7c-0.3,0-0.5,0.4-0.5,1.4c0,0.7,0.2,1.5,0.6,1.5c0.3,0,0.5-0.6,0.5-1.4C158.8,286.5,158.6,285.7,158.1,285.7z"/>
			<path class="st6" d="M160.5,286.8c0-0.2,0-0.4,0-0.5c0-0.1,0-0.1-0.1-0.1c-0.1,0-0.4,0.2-0.5,0.2c0,0,0,0-0.1,0c0,0,0,0,0,0
				s0,0,0-0.1c0,0,0.8-0.5,1-0.6c0,0,0.1-0.1,0.1-0.1c0,0,0.1,0,0.1,0.1c0,0,0,0.4,0,1.1v0.8c0,0.4,0,0.8,0,0.9c0,0.1,0,0.2,0.2,0.2
				c0.1,0,0.2,0,0.3,0c0,0,0,0,0,0c0,0,0,0-0.1,0c-0.3,0-0.6,0-0.7,0c-0.1,0-0.4,0-0.7,0c0,0-0.1,0-0.1,0c0,0,0,0,0,0
				c0,0,0.3,0,0.3,0c0.1,0,0.2-0.1,0.2-0.2c0-0.2,0-0.5,0-0.9L160.5,286.8z"/>
			<path class="st6" d="M164.2,286.7c0,1.2-1,1.9-1.5,2.1c0,0,0,0-0.1,0c0,0,0,0,0,0c0,0,0-0.1,0.1-0.1c0.4-0.3,1.1-0.9,1.1-1.9
				c0-0.7-0.3-1.1-0.6-1.1c-0.3,0-0.5,0.3-0.5,0.6c0,0.6,0.4,0.8,0.6,0.8c0.1,0,0.2,0,0.3,0c0,0,0.1,0,0.1,0c0,0,0,0,0,0
				c0,0,0,0,0,0c-0.1,0.1-0.3,0.2-0.6,0.2c-0.6,0-0.9-0.5-0.9-0.8c0-0.6,0.4-1,1.1-1C163.9,285.6,164.2,286.1,164.2,286.7z"/>
		</g>
	</g>
	<g id="XMLID_278_">
		<g id="XMLID_287_">
			<g id="XMLID_289_">
				<g id="XMLID_291_">
					<g id="XMLID_292_">
						<g id="XMLID_440_">
							<g id="XMLID_441_">
								<g id="XMLID_442_">
									<g id="XMLID_443_">
										<g id="XMLID_444_">
											<polygon id="XMLID_456_" class="st6" points="83.1,234.7 83.1,247 70.6,247 70.6,234.7 63.6,234.7 63.6,267.3 
												70.6,267.3 70.6,252.8 83.1,252.8 83.1,267.3 90.3,267.3 90.3,234.7 											"/>
											<g id="XMLID_445_">
												<g id="XMLID_446_">
													<g id="XMLID_453_">
														<polygon id="XMLID_455_" class="st6" points="31.4,234.7 31.4,255.4 38.3,236.3 38.3,236.3 38.3,234.7 														
															"/>
														<path id="XMLID_454_" class="st6" d="M29.2,260.7c-1,0.7-2.4,1-4,1c-1.8,0-3.1-0.6-4.1-1.7c-1-1.1-1.4-2.6-1.4-4.6
															v-20.8h-6.9v21.4c0,3.8,1.1,6.6,3.4,8.5c2.2,1.8,5.3,2.8,9.1,2.8c0.6,0,1.1,0,1.7-0.1l0.1,0l2.4-6.8L29.2,260.7z"/>
													</g>
													<path id="XMLID_450_" class="st6" d="M48,234.7h-8l-11.6,32.6h7.4l2.3-6.7h11.8l1.7,5.5v-21.4L48,234.7z M47.9,254.9
														h-8l4-12.6L47.9,254.9z"/>
													<g id="XMLID_447_">
														<polygon id="XMLID_449_" class="st6" points="62.6,240.5 62.6,234.7 52.6,234.7 52.6,267.3 62.6,267.3 62.6,261.3 
															59.4,261.3 59.4,252.8 62.6,252.8 62.6,247 59.4,247 59.4,240.5 														"/>
														<rect id="XMLID_448_" x="71.6" y="261.5" class="st6" width="5.6" height="5.8"/>
													</g>
												</g>
											</g>
										</g>
									</g>
								</g>
							</g>
						</g>
						<g id="XMLID_293_">
							<g id="XMLID_294_">
								<g id="XMLID_437_">
									<path id="XMLID_438_" class="st6" d="M15.5,269.6v1.6c0,0.2,0,0.4,0.1,0.5c0.1,0.2,0.3,0.3,0.5,0.3c0.3,0,0.5-0.1,0.6-0.3
										c0.1-0.1,0.1-0.3,0.1-0.5v-1.6h0.4v1.5c0,0.3,0,0.6-0.1,0.8c-0.2,0.3-0.5,0.5-0.9,0.5c-0.5,0-0.8-0.2-0.9-0.5
										c-0.1-0.2-0.1-0.4-0.1-0.8v-1.5H15.5z"/>
								</g>
								<g id="XMLID_434_">
									<path id="XMLID_435_" class="st6" d="M17.8,270.3h0.3v0.3c0.1-0.1,0.2-0.2,0.3-0.2c0.1-0.1,0.2-0.1,0.3-0.1
										c0.3,0,0.5,0.1,0.6,0.3c0.1,0.1,0.1,0.3,0.1,0.4v1.2H19V271c0-0.1,0-0.2-0.1-0.3c-0.1-0.1-0.2-0.2-0.3-0.2
										c-0.1,0-0.1,0-0.2,0c-0.1,0-0.2,0.1-0.2,0.2c-0.1,0.1-0.1,0.1-0.1,0.2c0,0.1,0,0.2,0,0.3v1h-0.3V270.3z"/>
								</g>
								<g id="XMLID_430_">
									<path id="XMLID_431_" class="st6" d="M19.8,269.6h0.3v0.4h-0.3V269.6z M19.8,270.3h0.3v1.9h-0.3V270.3z"/>
								</g>
								<g id="XMLID_427_">
									<path id="XMLID_428_" class="st6" d="M20.8,270.3l0.5,1.6l0.5-1.6h0.4l-0.7,1.9h-0.3l-0.7-1.9H20.8z"/>
								</g>
								<g id="XMLID_423_">
									<path id="XMLID_424_" class="st6" d="M23.7,270.3c0.1,0.1,0.2,0.1,0.3,0.3c0.1,0.1,0.1,0.2,0.1,0.3c0,0.1,0,0.2,0,0.4h-1.4
										c0,0.2,0.1,0.4,0.1,0.5c0.1,0.1,0.2,0.2,0.4,0.2c0.2,0,0.3-0.1,0.4-0.2c0.1-0.1,0.1-0.1,0.1-0.2h0.3c0,0.1,0,0.1-0.1,0.2
										c0,0.1-0.1,0.2-0.2,0.2c-0.1,0.1-0.2,0.2-0.4,0.2c-0.1,0-0.2,0-0.3,0c-0.2,0-0.4-0.1-0.6-0.3c-0.2-0.2-0.2-0.4-0.2-0.7
										c0-0.3,0.1-0.6,0.3-0.8c0.2-0.2,0.4-0.3,0.7-0.3C23.4,270.2,23.6,270.3,23.7,270.3z M23.8,271.1c0-0.1,0-0.3-0.1-0.3
										c-0.1-0.2-0.2-0.2-0.4-0.2c-0.1,0-0.3,0.1-0.4,0.2c-0.1,0.1-0.2,0.2-0.2,0.4H23.8z"/>
								</g>
								<g id="XMLID_420_">
									<path id="XMLID_421_" class="st6" d="M24.6,270.3h0.3v0.3c0-0.1,0.1-0.1,0.2-0.2c0.1-0.1,0.2-0.1,0.3-0.1c0,0,0,0,0,0
										c0,0,0,0,0.1,0v0.3c0,0,0,0-0.1,0c0,0,0,0-0.1,0c-0.2,0-0.3,0.1-0.4,0.2c-0.1,0.1-0.1,0.2-0.1,0.4v1.1h-0.3V270.3z"/>
								</g>
								<g id="XMLID_417_">
									<path id="XMLID_418_" class="st6" d="M26,271.6c0,0.1,0,0.2,0.1,0.3c0.1,0.1,0.2,0.2,0.4,0.2c0.1,0,0.2,0,0.3-0.1
										c0.1-0.1,0.1-0.1,0.1-0.2c0-0.1,0-0.1-0.1-0.2c0,0-0.1-0.1-0.3-0.1l-0.3-0.1c-0.2,0-0.3-0.1-0.4-0.1
										c-0.1-0.1-0.2-0.2-0.2-0.4c0-0.2,0.1-0.3,0.2-0.4c0.1-0.1,0.3-0.2,0.5-0.2c0.3,0,0.5,0.1,0.6,0.3c0.1,0.1,0.1,0.2,0.1,0.3
										h-0.3c0-0.1,0-0.1-0.1-0.2c-0.1-0.1-0.2-0.1-0.4-0.1c-0.1,0-0.2,0-0.3,0.1c-0.1,0-0.1,0.1-0.1,0.2c0,0.1,0,0.2,0.1,0.2
										c0,0,0.1,0.1,0.2,0.1l0.2,0.1c0.2,0.1,0.4,0.1,0.5,0.2c0.1,0.1,0.2,0.2,0.2,0.4c0,0.2-0.1,0.3-0.2,0.4
										c-0.1,0.1-0.3,0.2-0.6,0.2c-0.3,0-0.5-0.1-0.6-0.2c-0.1-0.1-0.2-0.3-0.2-0.5H26z"/>
								</g>
								<g id="XMLID_413_">
									<path id="XMLID_414_" class="st6" d="M27.6,269.6H28v0.4h-0.3V269.6z M27.6,270.3H28v1.9h-0.3V270.3z"/>
								</g>
								<g id="XMLID_409_">
									<path id="XMLID_410_" class="st6" d="M29.5,270.4c0.1,0,0.1,0.1,0.2,0.2v-1H30v2.7h-0.3V272c-0.1,0.1-0.2,0.2-0.3,0.3
										c-0.1,0.1-0.2,0.1-0.4,0.1c-0.2,0-0.4-0.1-0.6-0.3c-0.2-0.2-0.2-0.4-0.2-0.7c0-0.3,0.1-0.5,0.2-0.7
										c0.1-0.2,0.3-0.3,0.6-0.3C29.3,270.3,29.4,270.3,29.5,270.4z M28.8,271.8c0.1,0.1,0.2,0.2,0.4,0.2c0.1,0,0.3-0.1,0.4-0.2
										c0.1-0.1,0.1-0.3,0.1-0.6c0-0.2-0.1-0.4-0.1-0.5c-0.1-0.1-0.2-0.2-0.4-0.2c-0.2,0-0.3,0.1-0.4,0.2
										c-0.1,0.1-0.2,0.3-0.2,0.6C28.7,271.5,28.7,271.7,28.8,271.8z"/>
								</g>
								<g id="XMLID_405_">
									<path id="XMLID_406_" class="st6" d="M31.5,271.1c0.1,0,0.1,0,0.1-0.1c0,0,0-0.1,0-0.1c0-0.1,0-0.2-0.1-0.2
										c-0.1,0-0.2-0.1-0.3-0.1c-0.2,0-0.3,0-0.4,0.1c0,0.1-0.1,0.1-0.1,0.2h-0.3c0-0.2,0.1-0.4,0.2-0.5c0.1-0.1,0.3-0.1,0.5-0.1
										c0.2,0,0.4,0,0.6,0.1c0.1,0.1,0.2,0.2,0.2,0.4v1.1c0,0,0,0.1,0,0.1c0,0,0,0,0.1,0c0,0,0,0,0,0c0,0,0,0,0.1,0v0.2
										c-0.1,0-0.1,0-0.1,0c0,0-0.1,0-0.1,0c-0.1,0-0.2,0-0.2-0.1c0,0,0-0.1-0.1-0.2c-0.1,0.1-0.2,0.2-0.3,0.2
										c-0.1,0.1-0.3,0.1-0.4,0.1c-0.2,0-0.3-0.1-0.4-0.2c-0.1-0.1-0.2-0.2-0.2-0.4c0-0.2,0.1-0.3,0.2-0.4
										c0.1-0.1,0.3-0.2,0.4-0.2L31.5,271.1z M30.9,271.9c0.1,0.1,0.2,0.1,0.2,0.1c0.1,0,0.2,0,0.3-0.1c0.2-0.1,0.3-0.2,0.3-0.4
										v-0.3c0,0-0.1,0-0.2,0.1c-0.1,0-0.1,0-0.2,0l-0.2,0c-0.1,0-0.2,0-0.3,0.1c-0.1,0.1-0.2,0.1-0.2,0.3
										C30.8,271.8,30.8,271.9,30.9,271.9z"/>
								</g>
								<g id="XMLID_401_">
									<path id="XMLID_402_" class="st6" d="M33.6,270.4c0.1,0,0.1,0.1,0.2,0.2v-1h0.3v2.7h-0.3V272c-0.1,0.1-0.2,0.2-0.3,0.3
										c-0.1,0.1-0.2,0.1-0.4,0.1c-0.2,0-0.4-0.1-0.6-0.3c-0.2-0.2-0.2-0.4-0.2-0.7c0-0.3,0.1-0.5,0.2-0.7
										c0.1-0.2,0.3-0.3,0.6-0.3C33.4,270.3,33.5,270.3,33.6,270.4z M32.9,271.8c0.1,0.1,0.2,0.2,0.4,0.2c0.2,0,0.3-0.1,0.4-0.2
										c0.1-0.1,0.1-0.3,0.1-0.6c0-0.2-0.1-0.4-0.1-0.5c-0.1-0.1-0.2-0.2-0.4-0.2c-0.2,0-0.3,0.1-0.4,0.2
										c-0.1,0.1-0.2,0.3-0.2,0.6C32.8,271.5,32.8,271.7,32.9,271.8z"/>
								</g>
								<g id="XMLID_397_">
									<path id="XMLID_398_" class="st6" d="M36.3,269.6h0.4l1,2.7h-0.4l-0.3-0.8h-1l-0.3,0.8h-0.4L36.3,269.6z M36.9,271.1
										l-0.4-1.2l-0.4,1.2H36.9z"/>
								</g>
								<g id="XMLID_394_">
									<path id="XMLID_395_" class="st6" d="M38.2,270.3v1.3c0,0.1,0,0.2,0,0.2c0.1,0.1,0.2,0.2,0.3,0.2c0.2,0,0.4-0.1,0.4-0.3
										c0-0.1,0.1-0.3,0.1-0.4v-1h0.3v1.9h-0.3l0-0.3c0,0.1-0.1,0.1-0.2,0.2c-0.1,0.1-0.3,0.2-0.4,0.2c-0.3,0-0.5-0.1-0.6-0.3
										c-0.1-0.1-0.1-0.2-0.1-0.4v-1.3H38.2z"/>
								</g>
								<g id="XMLID_391_">
									<path id="XMLID_392_" class="st6" d="M40,269.8h0.3v0.5h0.3v0.3h-0.3v1.3c0,0.1,0,0.1,0.1,0.1c0,0,0.1,0,0.1,0
										c0,0,0,0,0.1,0c0,0,0,0,0.1,0v0.3c0,0-0.1,0-0.1,0c0,0-0.1,0-0.1,0c-0.2,0-0.3,0-0.3-0.1c-0.1-0.1-0.1-0.2-0.1-0.3v-1.3
										h-0.3v-0.3H40V269.8z"/>
								</g>
								<g id="XMLID_386_">
									<path id="XMLID_387_" class="st6" d="M42.4,270.5c0.2,0.2,0.3,0.4,0.3,0.7c0,0.3-0.1,0.6-0.2,0.8c-0.1,0.2-0.4,0.3-0.7,0.3
										c-0.3,0-0.5-0.1-0.6-0.3c-0.2-0.2-0.2-0.4-0.2-0.7c0-0.3,0.1-0.6,0.2-0.8c0.2-0.2,0.4-0.3,0.7-0.3
										C42,270.2,42.2,270.3,42.4,270.5z M42.2,271.8c0.1-0.2,0.1-0.3,0.1-0.5c0-0.2,0-0.3-0.1-0.4c-0.1-0.2-0.2-0.3-0.5-0.3
										c-0.2,0-0.3,0.1-0.4,0.2c-0.1,0.2-0.1,0.3-0.1,0.5c0,0.2,0,0.4,0.1,0.5c0.1,0.1,0.2,0.2,0.4,0.2
										C42,272,42.1,271.9,42.2,271.8z M42.1,269.5l-0.5,0.5h-0.2l0.3-0.5H42.1z"/>
								</g>
								<g id="XMLID_383_">
									<path id="XMLID_384_" class="st6" d="M43,270.3h0.3v0.3c0.1-0.1,0.2-0.2,0.3-0.2c0.1-0.1,0.2-0.1,0.3-0.1
										c0.3,0,0.5,0.1,0.6,0.3c0.1,0.1,0.1,0.3,0.1,0.4v1.2h-0.3V271c0-0.1,0-0.2-0.1-0.3c-0.1-0.1-0.2-0.2-0.3-0.2
										c-0.1,0-0.1,0-0.2,0c-0.1,0-0.2,0.1-0.2,0.2c-0.1,0.1-0.1,0.1-0.1,0.2c0,0.1,0,0.2,0,0.3v1H43V270.3z"/>
								</g>
								<g id="XMLID_379_">
									<path id="XMLID_380_" class="st6" d="M46.5,270.5c0.2,0.2,0.3,0.4,0.3,0.7c0,0.3-0.1,0.6-0.2,0.8c-0.2,0.2-0.4,0.3-0.7,0.3
										c-0.3,0-0.5-0.1-0.6-0.3c-0.2-0.2-0.2-0.4-0.2-0.7c0-0.3,0.1-0.6,0.2-0.8c0.2-0.2,0.4-0.3,0.7-0.3
										C46.1,270.2,46.3,270.3,46.5,270.5z M46.3,271.8c0.1-0.2,0.1-0.3,0.1-0.5c0-0.2,0-0.3-0.1-0.4c-0.1-0.2-0.2-0.3-0.5-0.3
										c-0.2,0-0.3,0.1-0.4,0.2c-0.1,0.2-0.1,0.3-0.1,0.5c0,0.2,0,0.4,0.1,0.5c0.1,0.1,0.2,0.2,0.4,0.2
										C46.1,272,46.2,271.9,46.3,271.8z"/>
								</g>
								<g id="XMLID_376_">
									<path id="XMLID_377_" class="st6" d="M47.2,270.3h0.3v0.3c0.1-0.1,0.1-0.2,0.2-0.2c0.1-0.1,0.2-0.1,0.4-0.1
										c0.2,0,0.3,0,0.4,0.1c0.1,0,0.1,0.1,0.1,0.2c0.1-0.1,0.2-0.2,0.3-0.2c0.1-0.1,0.2-0.1,0.3-0.1c0.3,0,0.4,0.1,0.5,0.3
										c0,0.1,0.1,0.2,0.1,0.4v1.3h-0.3v-1.3c0-0.1,0-0.2-0.1-0.3c-0.1,0-0.1-0.1-0.2-0.1c-0.1,0-0.2,0-0.3,0.1
										c-0.1,0.1-0.1,0.2-0.1,0.4v1.1h-0.3V271c0-0.1,0-0.2,0-0.3c0-0.1-0.1-0.1-0.3-0.1c-0.1,0-0.2,0-0.3,0.1
										c-0.1,0.1-0.2,0.3-0.2,0.5v1h-0.3V270.3z"/>
								</g>
								<g id="XMLID_372_">
									<path id="XMLID_373_" class="st6" d="M51.3,271.1c0.1,0,0.1,0,0.1-0.1c0,0,0-0.1,0-0.1c0-0.1,0-0.2-0.1-0.2
										c-0.1,0-0.2-0.1-0.3-0.1c-0.2,0-0.3,0-0.4,0.1c0,0.1-0.1,0.1-0.1,0.2h-0.3c0-0.2,0.1-0.4,0.2-0.5c0.1-0.1,0.3-0.1,0.5-0.1
										c0.2,0,0.4,0,0.6,0.1c0.1,0.1,0.2,0.2,0.2,0.4v1.1c0,0,0,0.1,0,0.1c0,0,0,0,0.1,0c0,0,0,0,0,0c0,0,0,0,0.1,0v0.2
										c-0.1,0-0.1,0-0.1,0c0,0-0.1,0-0.1,0c-0.1,0-0.2,0-0.2-0.1c0,0,0-0.1-0.1-0.2c-0.1,0.1-0.2,0.2-0.3,0.2
										c-0.1,0.1-0.3,0.1-0.4,0.1c-0.2,0-0.3-0.1-0.4-0.2c-0.1-0.1-0.2-0.2-0.2-0.4c0-0.2,0.1-0.3,0.2-0.4
										c0.1-0.1,0.3-0.2,0.4-0.2L51.3,271.1z M50.6,271.9c0.1,0.1,0.2,0.1,0.2,0.1c0.1,0,0.2,0,0.3-0.1c0.2-0.1,0.3-0.2,0.3-0.4
										v-0.3c0,0-0.1,0-0.2,0.1c-0.1,0-0.1,0-0.2,0l-0.2,0c-0.1,0-0.2,0-0.3,0.1c-0.1,0.1-0.2,0.1-0.2,0.3
										C50.5,271.8,50.5,271.9,50.6,271.9z"/>
								</g>
								<g id="XMLID_368_">
									<path id="XMLID_369_" class="st6" d="M54.4,270.4c0.1,0,0.1,0.1,0.2,0.2v-1h0.3v2.7h-0.3V272c-0.1,0.1-0.2,0.2-0.3,0.3
										c-0.1,0.1-0.2,0.1-0.4,0.1c-0.2,0-0.4-0.1-0.6-0.3c-0.2-0.2-0.2-0.4-0.2-0.7c0-0.3,0.1-0.5,0.2-0.7
										c0.1-0.2,0.3-0.3,0.6-0.3C54.2,270.3,54.3,270.3,54.4,270.4z M53.6,271.8c0.1,0.1,0.2,0.2,0.4,0.2c0.1,0,0.3-0.1,0.4-0.2
										c0.1-0.1,0.1-0.3,0.1-0.6c0-0.2,0-0.4-0.1-0.5c-0.1-0.1-0.2-0.2-0.4-0.2c-0.2,0-0.3,0.1-0.4,0.2c-0.1,0.1-0.2,0.3-0.2,0.6
										C53.5,271.5,53.6,271.7,53.6,271.8z"/>
								</g>
								<g id="XMLID_364_">
									<path id="XMLID_365_" class="st6" d="M56.6,270.3c0.1,0.1,0.2,0.1,0.3,0.3c0.1,0.1,0.1,0.2,0.1,0.3c0,0.1,0,0.2,0,0.4h-1.4
										c0,0.2,0.1,0.4,0.1,0.5c0.1,0.1,0.2,0.2,0.4,0.2c0.2,0,0.3-0.1,0.4-0.2c0.1-0.1,0.1-0.1,0.1-0.2H57c0,0.1,0,0.1-0.1,0.2
										c0,0.1-0.1,0.2-0.2,0.2c-0.1,0.1-0.2,0.2-0.4,0.2c-0.1,0-0.2,0-0.3,0c-0.2,0-0.4-0.1-0.6-0.3c-0.2-0.2-0.2-0.4-0.2-0.7
										c0-0.3,0.1-0.6,0.3-0.8c0.2-0.2,0.4-0.3,0.7-0.3C56.3,270.2,56.4,270.3,56.6,270.3z M56.7,271.1c0-0.1,0-0.3-0.1-0.3
										c-0.1-0.2-0.2-0.2-0.4-0.2c-0.1,0-0.3,0.1-0.4,0.2c-0.1,0.1-0.2,0.2-0.2,0.4H56.7z"/>
								</g>
								<g id="XMLID_361_">
									<path id="XMLID_362_" class="st6" d="M57.4,269.6h0.3v2.7h-0.3V269.6z"/>
								</g>
								<g id="XMLID_358_">
									<path id="XMLID_359_" class="st6" d="M59.3,269.6h1.9v0.3h-1.6v0.8h1.5v0.3h-1.5v0.9h1.6v0.3h-1.9V269.6z"/>
								</g>
								<g id="XMLID_346_">
									<path id="XMLID_356_" class="st6" d="M61.9,271.6c0,0.1,0,0.2,0.1,0.3c0.1,0.1,0.2,0.2,0.4,0.2c0.1,0,0.2,0,0.3-0.1
										c0.1-0.1,0.1-0.1,0.1-0.2c0-0.1,0-0.1-0.1-0.2c0,0-0.1-0.1-0.3-0.1l-0.3-0.1c-0.2,0-0.3-0.1-0.4-0.1
										c-0.1-0.1-0.2-0.2-0.2-0.4c0-0.2,0.1-0.3,0.2-0.4c0.1-0.1,0.3-0.2,0.5-0.2c0.3,0,0.5,0.1,0.6,0.3c0.1,0.1,0.1,0.2,0.1,0.3
										h-0.3c0-0.1,0-0.1-0.1-0.2c-0.1-0.1-0.2-0.1-0.4-0.1c-0.1,0-0.2,0-0.3,0.1c-0.1,0-0.1,0.1-0.1,0.2c0,0.1,0,0.2,0.1,0.2
										c0,0,0.1,0.1,0.2,0.1l0.2,0.1c0.2,0.1,0.4,0.1,0.5,0.2c0.1,0.1,0.2,0.2,0.2,0.4c0,0.2-0.1,0.3-0.2,0.4
										c-0.1,0.1-0.3,0.2-0.6,0.2c-0.3,0-0.5-0.1-0.6-0.2c-0.1-0.1-0.2-0.3-0.2-0.5H61.9z"/>
								</g>
								<g id="XMLID_343_">
									<path id="XMLID_344_" class="st6" d="M63.6,269.8H64v0.5h0.3v0.3H64v1.3c0,0.1,0,0.1,0.1,0.1c0,0,0.1,0,0.1,0
										c0,0,0,0,0.1,0c0,0,0,0,0.1,0v0.3c0,0-0.1,0-0.1,0c0,0-0.1,0-0.1,0c-0.2,0-0.3,0-0.3-0.1c-0.1-0.1-0.1-0.2-0.1-0.3v-1.3
										h-0.3v-0.3h0.3V269.8z"/>
								</g>
								<g id="XMLID_339_">
									<path id="XMLID_340_" class="st6" d="M65.6,271.1c0.1,0,0.1,0,0.1-0.1c0,0,0-0.1,0-0.1c0-0.1,0-0.2-0.1-0.2
										c-0.1,0-0.2-0.1-0.3-0.1c-0.2,0-0.3,0-0.4,0.1c0,0.1-0.1,0.1-0.1,0.2h-0.3c0-0.2,0.1-0.4,0.2-0.5c0.1-0.1,0.3-0.1,0.5-0.1
										c0.2,0,0.4,0,0.6,0.1c0.1,0.1,0.2,0.2,0.2,0.4v1.1c0,0,0,0.1,0,0.1c0,0,0,0,0.1,0c0,0,0,0,0,0c0,0,0,0,0.1,0v0.2
										c-0.1,0-0.1,0-0.1,0c0,0-0.1,0-0.1,0c-0.1,0-0.2,0-0.2-0.1c0,0,0-0.1-0.1-0.2c-0.1,0.1-0.2,0.2-0.3,0.2
										c-0.1,0.1-0.3,0.1-0.4,0.1c-0.2,0-0.3-0.1-0.4-0.2c-0.1-0.1-0.2-0.2-0.2-0.4c0-0.2,0.1-0.3,0.2-0.4
										c0.1-0.1,0.3-0.2,0.4-0.2L65.6,271.1z M65,271.9c0.1,0.1,0.2,0.1,0.2,0.1c0.1,0,0.2,0,0.3-0.1c0.2-0.1,0.3-0.2,0.3-0.4
										v-0.3c0,0-0.1,0-0.2,0.1c-0.1,0-0.1,0-0.2,0l-0.2,0c-0.1,0-0.2,0-0.3,0.1c-0.1,0.1-0.2,0.1-0.2,0.3
										C64.9,271.8,64.9,271.9,65,271.9z"/>
								</g>
								<g id="XMLID_335_">
									<path id="XMLID_336_" class="st6" d="M67.7,270.4c0.1,0,0.1,0.1,0.2,0.2v-1h0.3v2.7h-0.3V272c-0.1,0.1-0.2,0.2-0.3,0.3
										c-0.1,0.1-0.2,0.1-0.4,0.1c-0.2,0-0.4-0.1-0.6-0.3c-0.2-0.2-0.2-0.4-0.2-0.7c0-0.3,0.1-0.5,0.2-0.7
										c0.1-0.2,0.3-0.3,0.6-0.3C67.5,270.3,67.6,270.3,67.7,270.4z M67,271.8c0.1,0.1,0.2,0.2,0.4,0.2c0.1,0,0.3-0.1,0.4-0.2
										c0.1-0.1,0.1-0.3,0.1-0.6c0-0.2,0-0.4-0.1-0.5c-0.1-0.1-0.2-0.2-0.4-0.2c-0.2,0-0.3,0.1-0.4,0.2c-0.1,0.1-0.2,0.3-0.2,0.6
										C66.9,271.5,66.9,271.7,67,271.8z"/>
								</g>
								<g id="XMLID_331_">
									<path id="XMLID_332_" class="st6" d="M70.1,270.5c0.2,0.2,0.3,0.4,0.3,0.7c0,0.3-0.1,0.6-0.2,0.8c-0.2,0.2-0.4,0.3-0.7,0.3
										c-0.3,0-0.5-0.1-0.6-0.3c-0.2-0.2-0.2-0.4-0.2-0.7c0-0.3,0.1-0.6,0.2-0.8c0.2-0.2,0.4-0.3,0.7-0.3
										C69.7,270.2,70,270.3,70.1,270.5z M69.9,271.8c0.1-0.2,0.1-0.3,0.1-0.5c0-0.2,0-0.3-0.1-0.4c-0.1-0.2-0.2-0.3-0.5-0.3
										c-0.2,0-0.3,0.1-0.4,0.2c-0.1,0.2-0.1,0.3-0.1,0.5c0,0.2,0,0.4,0.1,0.5c0.1,0.1,0.2,0.2,0.4,0.2
										C69.7,272,69.8,271.9,69.9,271.8z"/>
								</g>
								<g id="XMLID_327_">
									<path id="XMLID_328_" class="st6" d="M72.9,270.4c0.1,0,0.1,0.1,0.2,0.2v-1h0.3v2.7h-0.3V272c-0.1,0.1-0.2,0.2-0.3,0.3
										c-0.1,0.1-0.2,0.1-0.4,0.1c-0.2,0-0.4-0.1-0.6-0.3c-0.2-0.2-0.2-0.4-0.2-0.7c0-0.3,0.1-0.5,0.2-0.7
										c0.1-0.2,0.3-0.3,0.6-0.3C72.6,270.3,72.8,270.3,72.9,270.4z M72.1,271.8c0.1,0.1,0.2,0.2,0.4,0.2c0.2,0,0.3-0.1,0.4-0.2
										c0.1-0.1,0.1-0.3,0.1-0.6c0-0.2-0.1-0.4-0.1-0.5c-0.1-0.1-0.2-0.2-0.4-0.2c-0.2,0-0.3,0.1-0.4,0.2
										c-0.1,0.1-0.2,0.3-0.2,0.6C72,271.5,72.1,271.7,72.1,271.8z"/>
								</g>
								<g id="XMLID_323_">
									<path id="XMLID_324_" class="st6" d="M75.1,270.3c0.1,0.1,0.2,0.1,0.3,0.3c0.1,0.1,0.1,0.2,0.1,0.3c0,0.1,0,0.2,0,0.4h-1.4
										c0,0.2,0.1,0.4,0.1,0.5c0.1,0.1,0.2,0.2,0.4,0.2c0.2,0,0.3-0.1,0.4-0.2c0.1-0.1,0.1-0.1,0.1-0.2h0.3c0,0.1,0,0.1-0.1,0.2
										c0,0.1-0.1,0.2-0.2,0.2c-0.1,0.1-0.2,0.2-0.4,0.2c-0.1,0-0.2,0-0.3,0c-0.2,0-0.4-0.1-0.6-0.3c-0.2-0.2-0.2-0.4-0.2-0.7
										c0-0.3,0.1-0.6,0.3-0.8c0.2-0.2,0.4-0.3,0.7-0.3C74.8,270.2,74.9,270.3,75.1,270.3z M75.2,271.1c0-0.1,0-0.3-0.1-0.3
										c-0.1-0.2-0.2-0.2-0.4-0.2c-0.1,0-0.3,0.1-0.4,0.2c-0.1,0.1-0.2,0.2-0.2,0.4H75.2z"/>
								</g>
								<g id="XMLID_320_">
									<path id="XMLID_321_" class="st6" d="M77,269.6h0.4v1.1h1.4v-1.1h0.4v2.7h-0.4V271h-1.4v1.2H77V269.6z"/>
								</g>
								<g id="XMLID_316_">
									<path id="XMLID_317_" class="st6" d="M79.6,269.6h0.3v0.4h-0.3V269.6z M79.6,270.3h0.3v1.9h-0.3V270.3z"/>
								</g>
								<g id="XMLID_312_">
									<path id="XMLID_313_" class="st6" d="M81.5,270.4c0.1,0,0.1,0.1,0.2,0.2v-1H82v2.7h-0.3V272c-0.1,0.1-0.2,0.2-0.3,0.3
										c-0.1,0.1-0.2,0.1-0.4,0.1c-0.2,0-0.4-0.1-0.6-0.3c-0.2-0.2-0.2-0.4-0.2-0.7c0-0.3,0.1-0.5,0.2-0.7
										c0.1-0.2,0.3-0.3,0.6-0.3C81.3,270.3,81.4,270.3,81.5,270.4z M80.8,271.8c0.1,0.1,0.2,0.2,0.4,0.2c0.1,0,0.3-0.1,0.4-0.2
										c0.1-0.1,0.1-0.3,0.1-0.6c0-0.2-0.1-0.4-0.2-0.5c-0.1-0.1-0.2-0.2-0.4-0.2c-0.2,0-0.3,0.1-0.4,0.2
										c-0.1,0.1-0.2,0.3-0.2,0.6C80.6,271.5,80.7,271.7,80.8,271.8z"/>
								</g>
								<g id="XMLID_308_">
									<path id="XMLID_309_" class="st6" d="M83.5,271.1c0.1,0,0.1,0,0.2-0.1c0,0,0-0.1,0-0.1c0-0.1,0-0.2-0.1-0.2
										c-0.1,0-0.2-0.1-0.3-0.1c-0.2,0-0.3,0-0.4,0.1c0,0.1-0.1,0.1-0.1,0.2h-0.3c0-0.2,0.1-0.4,0.2-0.5c0.1-0.1,0.3-0.1,0.5-0.1
										c0.2,0,0.4,0,0.6,0.1c0.1,0.1,0.2,0.2,0.2,0.4v1.1c0,0,0,0.1,0,0.1c0,0,0,0,0.1,0c0,0,0,0,0,0c0,0,0,0,0.1,0v0.2
										c-0.1,0-0.1,0-0.1,0c0,0-0.1,0-0.1,0c-0.1,0-0.2,0-0.2-0.1c0,0,0-0.1-0.1-0.2c-0.1,0.1-0.2,0.2-0.3,0.2
										c-0.1,0.1-0.3,0.1-0.4,0.1c-0.2,0-0.3-0.1-0.4-0.2c-0.1-0.1-0.2-0.2-0.2-0.4c0-0.2,0.1-0.3,0.2-0.4
										c0.1-0.1,0.3-0.2,0.4-0.2L83.5,271.1z M82.8,271.9c0.1,0.1,0.2,0.1,0.2,0.1c0.1,0,0.2,0,0.3-0.1c0.2-0.1,0.3-0.2,0.3-0.4
										v-0.3c0,0-0.1,0-0.2,0.1c-0.1,0-0.1,0-0.2,0l-0.2,0c-0.1,0-0.2,0-0.3,0.1c-0.1,0.1-0.2,0.1-0.2,0.3
										C82.7,271.8,82.8,271.9,82.8,271.9z"/>
								</g>
								<g id="XMLID_305_">
									<path id="XMLID_306_" class="st6" d="M84.5,269.6h0.3v2.7h-0.3V269.6z"/>
								</g>
								<g id="XMLID_301_">
									<path id="XMLID_302_" class="st6" d="M86.4,270.4c0.1,0,0.1,0.1,0.2,0.2v-0.2h0.3v1.8c0,0.2,0,0.4-0.1,0.6
										c-0.1,0.3-0.4,0.4-0.8,0.4c-0.2,0-0.4,0-0.5-0.1c-0.1-0.1-0.2-0.2-0.2-0.4h0.3c0,0.1,0,0.2,0.1,0.2
										c0.1,0.1,0.2,0.1,0.3,0.1c0.2,0,0.4-0.1,0.5-0.3c0-0.1,0.1-0.3,0.1-0.6c-0.1,0.1-0.1,0.2-0.2,0.2c-0.1,0-0.2,0.1-0.4,0.1
										c-0.2,0-0.4-0.1-0.5-0.2c-0.2-0.1-0.2-0.4-0.2-0.7c0-0.3,0.1-0.6,0.2-0.8c0.2-0.2,0.3-0.3,0.6-0.3
										C86.2,270.3,86.3,270.3,86.4,270.4z M86.5,270.7c-0.1-0.1-0.2-0.2-0.4-0.2c-0.2,0-0.4,0.1-0.5,0.3c0,0.1-0.1,0.3-0.1,0.4
										c0,0.2,0,0.4,0.1,0.5c0.1,0.1,0.2,0.2,0.4,0.2c0.2,0,0.4-0.1,0.5-0.3c0.1-0.1,0.1-0.3,0.1-0.4
										C86.6,271,86.6,270.8,86.5,270.7z"/>
								</g>
								<g id="XMLID_295_">
									<path id="XMLID_297_" class="st6" d="M88.8,270.5c0.2,0.2,0.3,0.4,0.3,0.7c0,0.3-0.1,0.6-0.2,0.8c-0.2,0.2-0.4,0.3-0.7,0.3
										c-0.3,0-0.5-0.1-0.6-0.3c-0.2-0.2-0.2-0.4-0.2-0.7c0-0.3,0.1-0.6,0.2-0.8c0.2-0.2,0.4-0.3,0.7-0.3
										C88.4,270.2,88.6,270.3,88.8,270.5z M88.6,271.8c0.1-0.2,0.1-0.3,0.1-0.5c0-0.2,0-0.3-0.1-0.4c-0.1-0.2-0.2-0.3-0.5-0.3
										c-0.2,0-0.3,0.1-0.4,0.2c-0.1,0.2-0.1,0.3-0.1,0.5c0,0.2,0,0.4,0.1,0.5c0.1,0.1,0.2,0.2,0.4,0.2
										C88.4,272,88.5,271.9,88.6,271.8z"/>
								</g>
							</g>
						</g>
					</g>
				</g>
				<rect id="XMLID_290_" x="71.6" y="234.8" class="st6" width="5.6" height="5.8"/>
			</g>
		</g>
		<g id="XMLID_279_">
			<path id="XMLID_280_" class="st6" d="M97.1,236.8c0,1.1-0.9,2-2,2c-1.1,0-2-0.9-2-2c0-1.1,0.9-2,2-2
				C96.2,234.8,97.1,235.7,97.1,236.8z M93.5,236.8c0,0.9,0.6,1.6,1.5,1.6c0.9,0,1.5-0.7,1.5-1.6c0-0.9-0.6-1.6-1.5-1.6
				C94.2,235.2,93.5,235.9,93.5,236.8z M94.8,237.8h-0.5v-2c0.2,0,0.4-0.1,0.8-0.1c0.4,0,0.5,0.1,0.7,0.1c0.1,0.1,0.2,0.2,0.2,0.4
				c0,0.2-0.2,0.4-0.4,0.5v0c0.2,0.1,0.3,0.2,0.4,0.5c0.1,0.3,0.1,0.4,0.1,0.5h-0.5c-0.1-0.1-0.1-0.3-0.2-0.5c0-0.2-0.2-0.3-0.4-0.3
				h-0.2V237.8z M94.8,236.7H95c0.3,0,0.5-0.1,0.5-0.3c0-0.2-0.1-0.3-0.4-0.3c-0.1,0-0.2,0-0.3,0V236.7z"/>
		</g>
	</g>
	<g>
		<g>
			<g>
				<g>
					<path class="st6" d="M215.2,271.1h1.5l-0.1,0.5h-0.9v1.2h0.8v0.5h-0.8v2h-0.5V271.1z"/>
				</g>
				<g>
					<path class="st6" d="M217,271.1h1.5l-0.1,0.5h-0.9v1.2h0.8v0.5h-0.8v1.5h0.9l0.1,0.5H217V271.1z"/>
				</g>
				<g>
					<path class="st6" d="M219.7,275.4c-0.5,0-0.8-0.3-0.9-0.9l0.3-0.4c0,0.4,0.3,0.7,0.6,0.7c0.3,0,0.5-0.2,0.5-0.6
						c0-0.4-0.1-0.6-0.6-0.8c-0.5-0.2-0.7-0.7-0.7-1.2c0-0.7,0.3-1.2,0.9-1.2c0.5,0,0.7,0.3,0.8,0.8l-0.3,0.4c0-0.4-0.2-0.7-0.5-0.7
						c-0.3,0-0.4,0.2-0.4,0.6c0,0.3,0.1,0.5,0.5,0.6c0.6,0.3,0.9,0.7,0.9,1.4C220.7,275,220.3,275.4,219.7,275.4L219.7,275.4z"/>
				</g>
				<g>
					<path class="st6" d="M221.6,271.7h-0.6l-0.1-0.5h1.9l-0.1,0.5H222v3.7h-0.5V271.7z"/>
				</g>
				<g>
					<path class="st6" d="M223.2,271.1h0.5v4.2h-0.5V271.1z"/>
				</g>
				<g>
					<path class="st6" d="M224,271.1h0.5l0.6,3.2l0,0.3h0l0-0.3l0.6-3.2h0.4l-0.8,4.2h-0.6L224,271.1z"/>
				</g>
				<g>
					<path class="st6" d="M226.6,275.3h-0.4l0.8-4.2h0.6l0.8,4.2h-0.5l-0.2-1.2h-0.8L226.6,275.3z M227.2,272.1l0-0.3h0L227.2,272.1
						l-0.4,1.6h0.6L227.2,272.1z"/>
				</g>
				<g>
					<path class="st6" d="M228.7,271.1h0.5v3.7h0.9l0.1,0.5h-1.5V271.1z"/>
				</g>
				<g>
					<path class="st6" d="M231.6,271.1h0.5v4.2h-0.5V271.1z"/>
				</g>
				<g>
					<path class="st6" d="M232.8,271.1h0.6l0.8,2.8l0.1,0.3h0l0-0.4v-2.7h0.4v4.2h-0.5l-0.9-2.9l-0.1-0.4h0l0,0.4v2.8h-0.4V271.1z"
						/>
				</g>
				<g>
					<path class="st6" d="M235.7,271.7h-0.6l-0.1-0.5h1.9l-0.1,0.5h-0.6v3.7h-0.5V271.7z"/>
				</g>
				<g>
					<path class="st6" d="M237.3,271.1h1.5l-0.1,0.5h-0.9v1.2h0.8v0.5h-0.8v1.5h0.9l0.1,0.5h-1.5V271.1z"/>
				</g>
				<g>
					<path class="st6" d="M239.3,271.1h0.8c0.7,0,0.9,0.5,0.9,1.1c0,0.6-0.2,0.9-0.5,1v0c0.4,0.2,0.5,1.9,0.7,2v0h-0.6
						c-0.1-0.9-0.3-1.8-0.6-1.8h-0.3v1.8h-0.5V271.1z M240.1,273c0.3,0,0.5-0.3,0.5-0.7c0-0.4-0.2-0.7-0.5-0.7h-0.3v1.4H240.1z"/>
				</g>
				<g>
					<path class="st6" d="M241.6,271.1h0.6l0.8,2.8l0.1,0.3h0l0-0.4v-2.7h0.4v4.2H243l-0.9-2.9l-0.1-0.4h0l0,0.4v2.8h-0.4V271.1z"/>
				</g>
				<g>
					<path class="st6" d="M244.3,275.3h-0.4l0.8-4.2h0.6l0.8,4.2h-0.5l-0.2-1.2h-0.8L244.3,275.3z M244.9,272.1l0-0.3h0L244.9,272.1
						l-0.4,1.6h0.6L244.9,272.1z"/>
				</g>
				<g>
					<path class="st6" d="M247.4,275.4c-0.7,0-1.1-0.9-1.1-2.2c0-1.3,0.4-2.2,1.1-2.2c0.5,0,0.7,0.3,0.8,0.8l-0.3,0.4
						c0-0.4-0.2-0.7-0.5-0.7c-0.4,0-0.6,0.6-0.6,1.6c0,1,0.2,1.6,0.6,1.6c0.3,0,0.4-0.2,0.5-0.7l0.3,0.4
						C248.1,275.1,247.8,275.4,247.4,275.4L247.4,275.4z"/>
				</g>
				<g>
					<path class="st6" d="M248.6,271.1h0.5v4.2h-0.5V271.1z"/>
				</g>
				<g>
					<path class="st6" d="M250.7,275.4c-0.7,0-1.1-0.9-1.1-2.2c0-1.3,0.4-2.2,1.1-2.2c0.7,0,1.1,0.9,1.1,2.2
						C251.8,274.5,251.4,275.4,250.7,275.4L250.7,275.4z M251.3,273.2c0-1-0.2-1.6-0.6-1.6s-0.6,0.6-0.6,1.6c0,1,0.2,1.6,0.6,1.6
						S251.3,274.2,251.3,273.2z"/>
				</g>
				<g>
					<path class="st6" d="M252.4,271.1h0.6l0.8,2.8l0.1,0.3h0l0-0.4v-2.7h0.4v4.2h-0.5l-0.9-2.9l-0.1-0.4h0l0,0.4v2.8h-0.4V271.1z"
						/>
				</g>
				<g>
					<path class="st6" d="M255,275.3h-0.4l0.8-4.2h0.6l0.8,4.2h-0.5l-0.2-1.2h-0.8L255,275.3z M255.7,272.1l0-0.3h0L255.7,272.1
						l-0.4,1.6h0.6L255.7,272.1z"/>
				</g>
				<g>
					<path class="st6" d="M257.1,271.1h0.5v3.7h0.9l0.1,0.5h-1.5V271.1z"/>
				</g>
				<g>
					<path class="st6" d="M260.1,271.1h0.8c0.7,0,1.1,0.9,1.1,2.1c0,1.2-0.4,2.1-1.1,2.1h-0.8V271.1z M260.8,274.8
						c0.5,0,0.7-0.7,0.7-1.6c0-0.9-0.2-1.6-0.7-1.6h-0.3v3.2H260.8z"/>
				</g>
				<g>
					<path class="st6" d="M262.5,271.1h1.5l-0.1,0.5H263v1.2h0.8v0.5H263v1.5h0.9l0.1,0.5h-1.5V271.1z"/>
				</g>
				<g>
					<path class="st6" d="M265.7,271.1h0.5v3.7h0.9l0.1,0.5h-1.5V271.1z"/>
				</g>
				<g>
					<path class="st6" d="M267.6,275.3h-0.4l0.8-4.2h0.6l0.8,4.2h-0.5l-0.2-1.2h-0.8L267.6,275.3z M268.2,272.1l0-0.3h0L268.2,272.1
						l-0.4,1.6h0.6L268.2,272.1z"/>
				</g>
				<g>
					<path class="st6" d="M270.8,271.1h0.5v4.2h-0.5V271.1z"/>
				</g>
				<g>
					<path class="st6" d="M272,271.1h0.6l0.5,2.3l0.1,0.3h0l0.1-0.3l0.5-2.3h0.6v4.2h-0.4v-2.9l0-0.4h0l-0.1,0.4l-0.6,2.6H273
						l-0.6-2.6l-0.1-0.4h0l0,0.4v2.9H272V271.1z"/>
				</g>
				<g>
					<path class="st6" d="M275.2,275.3h-0.4l0.8-4.2h0.6l0.8,4.2h-0.5l-0.2-1.2h-0.8L275.2,275.3z M275.8,272.1l0-0.3h0L275.8,272.1
						l-0.4,1.6h0.6L275.8,272.1z"/>
				</g>
				<g>
					<path class="st6" d="M278.2,275.4c-0.7,0-1.1-0.9-1.1-2.2c0-1.3,0.4-2.2,1.1-2.2c0.5,0,0.7,0.3,0.8,0.8l-0.3,0.4
						c0-0.4-0.2-0.7-0.5-0.7c-0.4,0-0.6,0.6-0.6,1.6c0,1,0.2,1.6,0.6,1.6c0.3,0,0.4-0.2,0.4-0.6v-0.7h-0.6V273h1v2.2l-0.1,0
						c0-0.2-0.1-0.3-0.1-0.4C278.7,275.2,278.5,275.4,278.2,275.4L278.2,275.4z"/>
				</g>
				<g>
					<path class="st6" d="M279.7,271.1h1.5l-0.1,0.5h-0.9v1.2h0.8v0.5h-0.8v1.5h0.9l0.1,0.5h-1.5V271.1z"/>
				</g>
				<g>
					<path class="st6" d="M281.7,271.1h0.6l0.8,2.8l0.1,0.3h0l0-0.4v-2.7h0.4v4.2H283l-0.9-2.9l-0.1-0.4h0l0,0.4v2.8h-0.4V271.1z"/>
				</g>
			</g>
			<g>
				<path class="st7" d="M216.6,236l16.6,0.6c0,0,0.4,0,0.5,0.7c0.1,0.7,0.3,8,0.3,8s0.1,0.6-0.5,0.7c-0.6,0.1-13.3,2.4-13.3,2.4
					s-0.4,0.1-0.5,1.1c-0.1,1-0.1,1.4-0.1,1.4s0,0.5,0.4,0.5c0.4,0,15.5-0.1,15.5-0.1s0.4,0.1,0.4,0.7c0,0.6,0.1,4.3,0.1,4.3
					s-0.1,0.5-0.5,0.6c-0.4,0.1-13.1,2.5-13.1,2.5s-0.4,0.1-0.4,0.7c0,0.6-0.3,8.5-0.3,8.5s0,0.5-0.4,0.6c-0.4,0-5.6-0.1-5.6-0.1
					s-0.5-0.1-0.6-0.6c-0.1-0.5-1.8-7.7-1.8-7.7s-0.1-0.5-0.1-1.2c0.1-0.7,2.8-23.1,2.8-23.1S216.1,236.1,216.6,236z"/>
			</g>
			<g>
				<path class="st7" d="M248.4,258.6L248.4,258.6l-0.1-0.1c0,0-0.1,0-0.1,0v0c0,0,0.1,0,0.1,0L248.4,258.6z"/>
				<path class="st7" d="M248.7,253v-14.8l-9-0.9v0.7h-1v-0.8l-0.6-0.1v31.7h0.6V268h1v0.8h7.4V268h1v0.8h0.6v-11.6
					c-0.4-0.3-0.6-1.3-0.6-2.6C248.1,253.4,248.7,253,248.7,253z M239.8,265.7h-1v-1.7h1V265.7z M239.8,261.8h-1v-1.7h1V261.8z
					 M239.8,257.8h-1v-1.7h1V257.8z M239.8,253.9h-1v-1.7h1V253.9z M239.8,249.9h-1v-1.7h1V249.9z M239.8,246h-1v-1.7h1V246z
					 M239.8,241.9h-1v-1.7h1V241.9z M247.1,240.3h1v1.7h-1V240.3z M247.1,244.2h1v1.7h-1V244.2z M247.1,248.2h1v1.7h-1V248.2z
					 M247.1,252.2h1v1.7h-1V252.2z M247.1,256.1h1v1.7h-1V256.1z M246.6,266h-6.3v-25.9h6.3V266z M247.1,261.8v-1.7h1v1.7H247.1z
					 M248.1,265.7h-1v-1.7h1V265.7z M248.4,261.3l-0.2,0.3l0.2-1.4l0.2,1.4L248.4,261.3z M248.6,259.7L248.6,259.7
					c-0.1,0-0.1-0.1-0.1-0.1c0-0.1,0-0.1-0.1-0.1c-0.1,0-0.1,0-0.1,0.1v0h-0.1v0c0,0,0-0.1-0.1-0.1c0,0-0.1,0-0.1,0.1
					c0,0,0,0.1,0,0.1l-0.1,0c0,0,0-0.1,0-0.1c0-0.1,0.1-0.2,0.1-0.2c0,0,0.1,0,0.1,0.1h0c0-0.1,0.1-0.1,0.1-0.1
					c0.1,0,0.1,0.1,0.1,0.2C248.6,259.7,248.6,259.7,248.6,259.7z M248.2,259.3L248.2,259.3c-0.1,0-0.1-0.1-0.1-0.1
					c0-0.1,0.1-0.2,0.1-0.2c0.1,0,0.2,0.1,0.2,0.1l0,0h0V259h0.1v0.3h-0.1l-0.1-0.1c-0.1-0.1-0.1-0.1-0.2-0.1
					C248.2,259.2,248.2,259.2,248.2,259.3C248.2,259.3,248.2,259.3,248.2,259.3z M248.6,258.3v0.1l-0.1,0v0.1l0.1,0v0.1l-0.5-0.1
					v-0.1L248.6,258.3z"/>
			</g>
			<g>
				<path class="st7" d="M251.9,239l6-0.1c0,0,0.4-0.1,0.8,0.5c0.4,0.6,9.2,17.4,9.2,17.4s0.3,0.5,0.4-0.2c0-0.7,0.9-18.4,0.9-18.4
					s0-0.5,0.5-0.5c0.4,0,3.2-0.2,3.2-0.2s0.6,0,0.7,0.6c0.1,0.7,1.8,16,1.8,16s0.2,0.7,0,1.6c-0.2,0.9-2.4,12.2-2.4,12.2
					s-0.1,0.5-0.7,0.5c-0.6,0-5.3-0.1-5.3-0.1s-0.5-0.1-0.8-0.6c-0.2-0.5-5.5-12-5.5-12s-0.3-0.4-0.4,0.1
					c-0.1,0.5-2.4,13.3-2.4,13.3s-0.1,0.4-0.6,0.4c-0.5,0-5.5-0.6-5.5-0.6s-0.7,0-0.7-0.7c0-0.8,0.4-28.7,0.4-28.7
					S251.4,239,251.9,239z"/>
			</g>
			<g>
				<path class="st7" d="M278.3,233.6l4.2-0.4c0,0,0.7-0.1,0.8,0.6c0.1,0.7,2.4,23.4,2.4,23.4s0.2,0.4-0.2,2.3
					c-0.4,1.9-1.8,8.9-1.8,8.9s-0.1,0.7-0.9,0.6c-0.8-0.1-5.8-1-5.8-1s-0.7,0-0.7-1.1c0-1.1,1.3-32.1,1.3-32.1
					S277.6,233.7,278.3,233.6z"/>
			</g>
			<g>
				<path class="st6" d="M248.6,226.9c0-0.4-0.4-0.7-0.7-0.8l-1.9-0.1l0.4,0l-0.4,2.9l0.8,0.6c0.1-0.1,0.3-0.2,0.5-0.2
					c0.4,0,0.8,0.4,0.8,0.8s-0.3,0.8-0.8,0.8c-0.4,0-0.8-0.4-0.8-0.8c0-0.1,0-0.2,0.1-0.3l-1-0.8l0.4-3.1l-2.1-0.1l-0.1,3.9l2.4,1.8
					l-0.6,1.1c0.1,0.1,0.2,0.3,0.2,0.5c0,0.4-0.3,0.8-0.8,0.8c-0.4,0-0.8-0.4-0.8-0.8s0.3-0.8,0.8-0.8c0.1,0,0.2,0,0.3,0l0.5-0.8
					l-2.1-1.6l-1.7,0.8v1c0.3,0.1,0.6,0.4,0.6,0.8c0,0.4-0.3,0.8-0.8,0.8c-0.4,0-0.8-0.4-0.8-0.8c0-0.4,0.2-0.7,0.6-0.8v-1.2
					l1.9-0.9l0.1-3.9l0.2,0l-1.8-0.1l-0.1,3.7l-1.1,0.3c0,0,0,0.1,0,0.1c0,0.4-0.3,0.8-0.8,0.8c-0.4,0-0.8-0.4-0.8-0.8
					s0.3-0.8,0.8-0.8c0.2,0,0.5,0.1,0.6,0.3l0.9-0.2l0.1-3.4l0.2,0l-2.3-0.1c-0.4,0-0.7,0.3-0.8,0.7l-0.4,7.2c0,0.4,0.3,0.7,0.7,0.8
					l9.2,0.6c0.4,0,0.7-0.3,0.7-0.7L248.6,226.9z"/>
				<ellipse class="st6" cx="239.9" cy="230" rx="0.4" ry="0.5"/>
				<ellipse class="st6" cx="244.9" cy="233.4" rx="0.4" ry="0.5"/>
				<ellipse class="st6" cx="241.6" cy="232.7" rx="0.4" ry="0.5"/>
				<ellipse class="st6" cx="247.2" cy="230.2" rx="0.4" ry="0.5"/>
			</g>
		</g>
		<g>
			<g>
				<path class="st6" d="M284.6,234.8c0-0.9,0.7-1.7,1.6-1.7c0.9,0,1.6,0.7,1.6,1.7c0,0.9-0.7,1.7-1.6,1.7
					C285.4,236.5,284.6,235.7,284.6,234.8z M286.3,236.2c0.7,0,1.3-0.6,1.3-1.4c0-0.8-0.6-1.4-1.3-1.4s-1.3,0.6-1.3,1.4
					C284.9,235.6,285.5,236.2,286.3,236.2z M285.5,233.7h0.7c0.5,0,0.7,0.2,0.7,0.6c0,0.3-0.2,0.5-0.4,0.5v0c0.3,0.1,0.3,1,0.5,1.1
					v0h-0.6c-0.1-0.5-0.1-0.9-0.3-0.9H286v0.9h-0.5V233.7z M286.2,234.6c0.1,0,0.2-0.1,0.2-0.3c0-0.2-0.1-0.3-0.2-0.3H286v0.5H286.2
					z"/>
			</g>
		</g>
	</g>
</g>
</svg>
